<svg xmlns="http://www.w3.org/2000/svg" xmlns:xlink="http://www.w3.org/1999/xlink" preserveAspectRatio="xMidYMid meet" viewBox="-1 -1 644 644" width="512" height="512" xmlns:v="https://vecta.io/nano"><defs><path d="M406.21.04l.43.04.42.06.42.08.42.09.4.11.4.12.4.14.38.16.38.17.37.18.37.2.35.21.35.22.33.24.33.25.31.26.31.27.29.29.29.29.27.31.26.31.25.33.24.33.22.35.21.35.2.37.18.37.17.38.16.38.14.4.12.4.11.4.09.42.08.42.06.42.04.43.03.44.01.44V224h213.33l.44.01.44.03.43.04.42.06.42.08.42.09.4.11.4.12.4.14.38.16.38.17.37.18.37.2.35.21.35.22.33.24.33.25.31.26.31.27.29.29.29.29.27.31.26.31.25.33.24.33.22.35.21.35.2.37.18.37.17.38.16.38.14.4.12.4.11.4.09.42.08.42.06.42.04.43.03.44.01.44v170.66l-.01.44-.03.44-.04.43-.06.42-.08.42-.09.42-.11.4-.12.4-.14.4-.16.38-.17.38-.18.37-.2.37-.21.35-.22.35-.24.33-.25.33-.26.31-.27.31-.29.29-.29.29-.31.27-.31.26-.33.25-.33.24-.35.22-.35.21-.37.2-.37.18-.38.17-.38.16-.4.14-.4.12-.4.11-.42.09-.42.08-.42.06-.43.04-.44.03-.44.01H416v213.33l-.01.44-.03.44-.04.43-.06.42-.08.42-.09.42-.11.4-.12.4-.14.4-.16.38-.17.38-.18.37-.2.37-.21.35-.22.35-.24.33-.25.33-.26.31-.27.31-.29.29-.29.29-.31.27-.31.26-.33.25-.33.24-.35.22-.35.21-.37.2-.37.18-.38.17-.38.16-.4.14-.4.12-.4.11-.42.09-.42.08-.42.06-.43.04-.44.03-.44.01H234.67l-.44-.01-.44-.03-.43-.04-.42-.06-.42-.08-.42-.09-.4-.11-.4-.12-.4-.14-.38-.16-.38-.17-.37-.18-.37-.2-.35-.21-.35-.22-.33-.24-.33-.25-.31-.26-.31-.27-.29-.29-.29-.29-.27-.31-.26-.31-.25-.33-.24-.33-.22-.35-.21-.35-.2-.37-.18-.37-.17-.38-.16-.38-.14-.4-.12-.4-.11-.4-.09-.42-.08-.42-.06-.42-.04-.43-.03-.44-.01-.44V416H10.67l-.44-.01-.44-.03-.43-.04-.42-.06-.42-.08-.42-.09-.4-.11-.4-.12-.4-.14-.38-.16-.38-.17-.37-.18-.37-.2-.35-.21-.35-.22-.33-.24-.33-.25-.31-.26-.31-.27-.29-.29-.29-.29-.27-.31-.26-.31-.25-.33-.24-.33-.22-.35-.21-.35-.2-.37-.18-.37-.17-.38-.16-.38-.14-.4-.12-.4-.11-.4-.09-.42-.08-.42-.06-.42-.04-.43-.03-.44-.01-.44V234.67l.01-.44.03-.44.04-.43.06-.42.08-.42.09-.42.11-.4.12-.4.14-.4.16-.38.17-.38.18-.37.2-.37.21-.35.22-.35.24-.33.25-.33.26-.31.27-.31.29-.29.29-.29.31-.27.31-.26.33-.25.33-.24.35-.22.35-.21.37-.2.37-.18.38-.17.38-.16.4-.14.4-.12.4-.11.42-.09.42-.08.42-.06.43-.04.44-.03.44-.01H224V10.67l.01-.44.03-.44.04-.43.06-.42.08-.42.09-.42.11-.4.12-.4.14-.4.16-.38.17-.38.18-.37.2-.37.21-.35.22-.35.24-.33.25-.33.26-.31.27-.31.29-.29.29-.29.31-.27.31-.26.33-.25.33-.24.35-.22.35-.21.37-.2.37-.18.38-.17.38-.16.4-.14.4-.12.4-.11.42-.09.42-.08.42-.06.43-.04.44-.03.44-.01h170.66l.44.01.44.03z" id="A"/></defs><use xlink:href="#A" fill="var(--accent-n-color)"/></svg>