<svg viewBox="0 0 512 512" fill="none" stroke="#c8c8c8" stroke-miterlimit="10" stroke-width="20" xmlns="http://www.w3.org/2000/svg">
    <path d="M359.64 196.06L219.44 322.2v66.69l140.2 112.14 140.21-112.14V322.2L359.64 196.06z" />
    <path d="M359.64 501.03v-84.32m-140.2-27.82l47.15-21.14m93.05 48.96l-93.05-48.96m93.05-171.69l-93.05 171.69m233.27 21.15l-47.15-21.14m-93.07 48.95l93.07-48.95" />
    <path d="M359.64 196.06l93.07 171.7M153.87 13.1L13.67 139.24v66.69l140.2 112.14 140.21-112.14v-66.69L153.87 13.1z" />
    <path d="M153.87 318.07v-84.32m-140.2-27.82l47.15-21.14m93.05 48.96l-93.05-48.96M153.87 13.1L60.82 184.79m233.27 21.15l-47.15-21.14m-93.07 48.95l93.07-48.95M153.87 13.1l93.07 171.7" />
</svg>