<svg xmlns="http://www.w3.org/2000/svg" viewBox="0 0 64 64" xmlns:v="https://vecta.io/nano"><path d="M1.5 1.5h61v61h-61z" fill="#c3c3c3"/><path d="M61,3V61H3V3H61m3-3H0V64H64V0Z" fill="var(--accent-n-color)"/><g fill="none" stroke="var(--accent-n-color)" stroke-miterlimit="10" stroke-width="3"><path d="M3 19.5h7"/><path d="M8.5 21V7"/><path d="M8 8.5h13"/><path d="M19.5 3v6M61 44.5h-7"/><path d="M55.5 43v14"/><path d="M56 55.5H43"/><path d="M44.5 61v-6"/></g><path d="M10,54v2H8V54h2m2-2H6v6h6V52Z" fill="var(--accent-n-color)"/><g fill="#7f7f7f"><path d="M8 54h2v2H8zm49-8h4v15h-4z"/><path d="M46 57h15v4H46zM3 3h4v15H3z"/><path d="M3 3h15v4H3z"/></g><path d="M56,8v2H54V8h2m2-2H52v6h6V6Z" fill="var(--accent-n-color)"/><path d="M54 8h2v2h-2z" fill="#7f7f7f"/></svg>