<svg xmlns="http://www.w3.org/2000/svg" viewBox="0 0 64 64" xmlns:v="https://vecta.io/nano"><path d="M13.03-3.85l54.69 54.69-87.17 32.48L13.03-3.85z" fill="#99d9ea"/><path d="M13.62-1.14,65,50.25-16.9,80.77,13.62-1.14M12.44-6.56-22,85.87,70.44,51.44l-58-58Z" fill="var(--accent-n-color)"/><path d="M26.5 13.37l-25 25" fill="none" stroke="var(--accent-n-color)" stroke-miterlimit="10" stroke-width="3"/><path d="M64-.13H12l52 52v-52z" fill="#99d9ea"/><path d="M25.74 62.5l25.32-25.38L76.38 62.5H25.74z" fill="#2495b0"/><path d="M51.06,39.25,72.77,61H29.36l21.7-21.75m0-4.25L22.12,64H80L51.06,35Z" fill="var(--accent-n-color)"/><path d="M1.5-12.26l25.38 25.33L1.5 38.39v-50.65z" fill="#2495b0"/><g fill="var(--accent-n-color)"><path d="M3-8.64,24.75,13.07,3,34.77V-8.64M0-15.87V42L29,13.07,0-15.87Z"/><path d="M61,2.87v58H3v-58H61m3-3H0v64H64v-64Z"/></g></svg>