<svg id="Layer_1" data-name="Layer 1" xmlns="http://www.w3.org/2000/svg" viewBox="0 0 64 64"><defs><style>.cls-2{fill:#681e22}.cls-3{fill:none;stroke:#681e22;stroke-miterlimit:10;stroke-width:3px}.cls-4{fill:#7f7f7f}</style></defs><path fill="#c3c3c3" d="M1.5 1.5h61v61h-61z"/><path class="cls-2" d="M61 3v58H3V3h58m3-3H0v64h64V0z"/><path class="cls-3" d="M3 19.5h7M8.5 21V7M8 8.5h13M19.5 3v6M61 44.5h-7M55.5 43v14M56 55.5H43M44.5 61v-6"/><path class="cls-2" d="M10 54v2H8v-2h2m2-2H6v6h6v-6z"/><path class="cls-4" d="M8 54h2v2H8zM57 46h4v15h-4z"/><path class="cls-4" d="M46 57h15v4H46zM3 3h4v15H3z"/><path class="cls-4" d="M3 3h15v4H3z"/><path class="cls-2" d="M56 8v2h-2V8h2m2-2h-6v6h6V6z"/><path class="cls-4" d="M54 8h2v2h-2z"/></svg>