<svg id="Layer_1" data-name="Layer 1" xmlns="http://www.w3.org/2000/svg" viewBox="0 0 64 64"><defs><style>.cls-1{fill:#c3c3c3;}.cls-2{fill:#681e22;}.cls-3{fill:none;stroke:#681e22;stroke-miterlimit:10;stroke-width:3px;}.cls-4{fill:#7f7f7f;}</style></defs><title>Armor</title><rect class="cls-1" x="1.5" y="1.5" width="61" height="61"/><path class="cls-2" d="M61,3V61H3V3H61m3-3H0V64H64V0Z"/><line class="cls-3" x1="3" y1="19.5" x2="10" y2="19.5"/><line class="cls-3" x1="8.5" y1="21" x2="8.5" y2="7"/><line class="cls-3" x1="8" y1="8.5" x2="21" y2="8.5"/><line class="cls-3" x1="19.5" y1="3" x2="19.5" y2="9"/><line class="cls-3" x1="61" y1="44.5" x2="54" y2="44.5"/><line class="cls-3" x1="55.5" y1="43" x2="55.5" y2="57"/><line class="cls-3" x1="56" y1="55.5" x2="43" y2="55.5"/><line class="cls-3" x1="44.5" y1="61" x2="44.5" y2="55"/><path class="cls-2" d="M10,54v2H8V54h2m2-2H6v6h6V52Z"/><rect class="cls-4" x="8" y="54" width="2" height="2"/><rect class="cls-4" x="57" y="46" width="4" height="15"/><rect class="cls-4" x="46" y="57" width="15" height="4"/><rect class="cls-4" x="3" y="3" width="4" height="15"/><rect class="cls-4" x="3" y="3" width="15" height="4"/><path class="cls-2" d="M56,8v2H54V8h2m2-2H52v6h6V6Z"/><rect class="cls-4" x="54" y="8" width="2" height="2"/></svg>