<svg xmlns="http://www.w3.org/2000/svg" viewBox="0 0 512 512" xmlns:v="https://vecta.io/nano"><path d="M454.58 44.27l16.26 16.27-176.7 176.69-21.21 21.22 21.21 21.21 174.19 174.19-16.25 16.25-174.19-174.19-21.21-21.21-21.22 21.21L59.73 471.66 43.46 455.4 219.2 279.66l21.21-21.21-21.21-21.22L42.73 60.77 59 44.5 235.45 221l21.22 21.21L277.88 221l176.7-176.7m0-42.42L256.67 199.76 59 2.08.31 60.77 198 258.45 1 455.4l58.69 58.69 197-197 195.4 195.4 58.68-58.68-195.4-195.4 197.9-197.87-58.69-58.69z" fill="var(--accent-n-color)"/></svg>