<svg xmlns="http://www.w3.org/2000/svg" viewBox="0 0 512 512"><defs><style>.cls-1{fill:#681e22;}</style></defs><title>failures_mark_checked</title><g id="failures_mark"><polygon class="cls-1" points="20.75 453.9 217.7 256.94 20.02 59.27 57.5 21.79 255.17 219.47 453.08 21.56 490.56 59.03 292.64 256.94 488.04 452.35 450.58 489.81 255.18 294.41 58.23 491.37 20.75 453.9"/><path class="cls-1" d="M453.08,42.77,469.34,59,292.64,235.73,271.43,257l21.21,21.21L466.83,452.35,450.58,468.6,276.39,294.41,255.18,273.2,234,294.41,58.23,470.16,42,453.9,217.7,278.16,238.91,257,217.7,235.73,41.23,59.27,57.5,43,234,219.47l21.22,21.21,21.21-21.21,176.7-176.7m0-42.42L255.17,198.26,57.5.58-1.19,59.27,196.49,257l-197,197,58.69,58.69,197-197L450.58,511l58.68-58.68L313.86,257,511.77,59,453.08.35Z"/></g></svg>