<svg xmlns="http://www.w3.org/2000/svg" viewBox="0 0 512 512" fill="var(--accent-n-color)" xmlns:v="https://vecta.io/nano"><path d="M20.75 453.9L217.7 256.94 20.02 59.27 57.5 21.79l197.67 197.68L453.08 21.56l37.48 37.47-197.92 197.91 195.4 195.41-37.46 37.46-195.4-195.4L58.23 491.37 20.75 453.9z"/><path d="M453.08 42.77L469.34 59l-176.7 176.73L271.43 257l21.21 21.21 174.19 174.14-16.25 16.25-174.19-174.19-21.21-21.21L234 294.41 58.23 470.16 42 453.9l175.7-175.74L238.91 257l-21.21-21.27L41.23 59.27 57.5 43 234 219.47l21.22 21.21 21.21-21.21 176.7-176.7m0-42.42L255.17 198.26 57.5.58-1.19 59.27 196.49 257-.51 454l58.69 58.69 197-197L450.58 511l58.68-58.68L313.86 257 511.77 59 453.08.35z"/></svg>