<svg xmlns="http://www.w3.org/2000/svg" viewBox="0 0 512 512"><defs><style>.cls-1{fill:var(--accent-n-color);}</style></defs><title>failures_mark</title><g id="failures_mark"><path class="cls-1" d="M454.58,44.27l16.26,16.27L294.14,237.23l-21.21,21.22,21.21,21.21L468.33,453.85,452.08,470.1,277.89,295.91,256.68,274.7l-21.22,21.21L59.73,471.66,43.46,455.4,219.2,279.66l21.21-21.21L219.2,237.23,42.73,60.77,59,44.5,235.45,221l21.22,21.21L277.88,221l176.7-176.7m0-42.42L256.67,199.76,59,2.08.31,60.77,198,258.45,1,455.4l58.69,58.69,197-197,195.4,195.4,58.68-58.68-195.4-195.4L513.27,60.54,454.58,1.85Z"/></g></svg>