<svg id="Layer_1" data-name="Layer 1" xmlns="http://www.w3.org/2000/svg" viewBox="0 0 64 64"><defs><style>.cls-1{fill:#a6c4b6;}.cls-2,.cls-4{fill:var(--accent-n-color);}.cls-3{fill:none;stroke:var(--accent-n-color);stroke-miterlimit:10;stroke-width:3px;}.cls-4{fill-rule:evenodd;}</style></defs><title>Inspiration</title><rect class="cls-1" x="1.5" y="1.57" width="61" height="61"/><path class="cls-2" d="M61,3.07v58H3v-58H61m3-3H0v64H64V.07Z"/><line class="cls-3" x1="26" y1="4.54" x2="34" y2="12.54"/><line class="cls-3" x1="40" y1="4.54" x2="32" y2="12.54"/><polygon class="cls-4" points="33 13.48 33.06 13.6 32.94 13.6 33 13.48"/><line class="cls-3" x1="45" y1="4.47" x2="53" y2="12.47"/><line class="cls-3" x1="59" y1="4.47" x2="51" y2="12.47"/><polygon class="cls-4" points="52 13.41 52.06 13.53 51.94 13.53 52 13.41"/><line class="cls-3" x1="45" y1="17.47" x2="53" y2="25.47"/><line class="cls-3" x1="59" y1="17.47" x2="51" y2="25.47"/><polygon class="cls-4" points="52 26.41 52.06 26.53 51.94 26.53 52 26.41"/><line class="cls-3" x1="37.74" y1="59.46" x2="29.74" y2="51.46"/><line class="cls-3" x1="23.74" y1="59.46" x2="31.74" y2="51.46"/><polygon class="cls-4" points="30.74 50.52 30.68 50.4 30.8 50.4 30.74 50.52"/><line class="cls-3" x1="18.74" y1="59.53" x2="10.74" y2="51.53"/><line class="cls-3" x1="4.74" y1="59.53" x2="12.74" y2="51.53"/><polygon class="cls-4" points="11.74 50.59 11.68 50.47 11.8 50.47 11.74 50.59"/><line class="cls-3" x1="18.74" y1="46.53" x2="10.74" y2="38.53"/><line class="cls-3" x1="4.74" y1="46.53" x2="12.74" y2="38.53"/><polygon class="cls-4" points="11.74 37.59 11.68 37.47 11.8 37.47 11.74 37.59"/></svg>