<svg xmlns="http://www.w3.org/2000/svg" viewBox="0 0 64 64" xmlns:v="https://vecta.io/nano"><style><![CDATA[.E{fill:var(--accent-n-color)}.F{fill:none}.G{stroke:var(--accent-n-color)}.H{stroke-miterlimit:10}.I{stroke-width:3}.J{fill-rule:evenodd}]]></style><path d="M1.5 1.57h61v61h-61z" fill="#a6c4b6"/><path d="M61,3.07v58H3v-58H61m3-3H0v64H64V.07Z" class="E"/><g class="F G H I"><path d="M26 4.54l8 8"/><path d="M40 4.54l-8 8"/></g><path d="M33 13.48l.06.12h-.12l.06-.12z" class="E J"/><g class="F G H I"><path d="M45 4.47l8 8"/><path d="M59 4.47l-8 8"/></g><path d="M52 13.41l.06.12h-.12l.06-.12z" class="E J"/><g class="F G H I"><path d="M45 17.47l8 8"/><path d="M59 17.47l-8 8"/></g><path d="M52 26.41l.06.12h-.12l.06-.12z" class="E J"/><g class="F G H I"><path d="M37.74 59.46l-8-8"/><path d="M23.74 59.46l8-8"/></g><path d="M30.74 50.52l-.06-.12h.12l-.06.12z" class="E J"/><g class="F G H I"><path d="M18.74 59.53l-8-8"/><path d="M4.74 59.53l8-8"/></g><path d="M11.74 50.59l-.06-.12h.12l-.06.12z" class="E J"/><g class="F G H I"><path d="M18.74 46.53l-8-8"/><path d="M4.74 46.53l8-8"/></g><path d="M11.74 37.59l-.06-.12h.12l-.06.12z" class="E J"/></svg>