<svg id="Layer_1" data-name="Layer 1" xmlns="http://www.w3.org/2000/svg" viewBox="0 0 64 64"><defs><style>.cls-4{fill:#681e22}.cls-3{fill:none;stroke:#681e22;stroke-miterlimit:10;stroke-width:3px}.cls-4{fill-rule:evenodd}</style></defs><path fill="#a6c4b6" d="M1.5 1.57h61v61h-61z"/><path d="M61 3.07v58H3v-58h58m3-3H0v64h64v-64z" fill="#681e22"/><path class="cls-3" d="M26 4.54l8 8M40 4.54l-8 8"/><path class="cls-4" d="M33 13.48l.06.12h-.12l.06-.12z"/><path class="cls-3" d="M45 4.47l8 8M59 4.47l-8 8"/><path class="cls-4" d="M52 13.41l.06.12h-.12l.06-.12z"/><path class="cls-3" d="M45 17.47l8 8M59 17.47l-8 8"/><path class="cls-4" d="M52 26.41l.06.12h-.12l.06-.12z"/><path class="cls-3" d="M37.74 59.46l-8-8M23.74 59.46l8-8"/><path class="cls-4" d="M30.74 50.52l-.06-.12h.12l-.06.12z"/><path class="cls-3" d="M18.74 59.53l-8-8M4.74 59.53l8-8"/><path class="cls-4" d="M11.74 50.59l-.06-.12h.12l-.06.12z"/><path class="cls-3" d="M18.74 46.53l-8-8M4.74 46.53l8-8"/><path class="cls-4" d="M11.74 37.59l-.06-.12h.12l-.06.12z"/></svg>