<svg id="Layer_1" data-name="Layer 1" xmlns="http://www.w3.org/2000/svg" viewBox="0 0 64 64"><defs><style>.cls-1{fill:#99d9ea}.cls-2{fill:#681e22}.cls-4{fill:#2495b0}</style></defs><path class="cls-1" d="M13.03-3.85l54.69 54.69-87.17 32.48L13.03-3.85z"/><path class="cls-2" d="M13.62-1.14L65 50.25l-81.9 30.52L13.62-1.14m-1.18-5.42L-22 85.87l92.44-34.43-58-58z"/><path fill="none" stroke="#681e22" stroke-miterlimit="10" stroke-width="3" d="M26.5 13.37l-25 25"/><path class="cls-1" d="M64-.13H12l52 52v-52z"/><path class="cls-4" d="M25.74 62.5l25.32-25.38L76.38 62.5H25.74z"/><path class="cls-2" d="M51.06 39.25L72.77 61H29.36l21.7-21.75m0-4.25L22.12 64H80L51.06 35z"/><path class="cls-4" d="M1.5-12.26l25.38 25.33L1.5 38.39v-50.65z"/><path class="cls-2" d="M3-8.64l21.75 21.71L3 34.77V-8.64m-3-7.23V42l29-28.93L0-15.87z"/><path class="cls-2" d="M61 2.87v58H3v-58h58m3-3H0v64h64v-64z"/></svg>