<svg xmlns="http://www.w3.org/2000/svg" xmlns:xlink="http://www.w3.org/1999/xlink" viewBox="0 0 512 512" xmlns:v="https://vecta.io/nano"><style><![CDATA[.G{stroke:#000}.H{stroke-width:80}.I{stroke-width:40}]]></style><g fill="none" stroke-linecap="round" stroke-miterlimit="10"><use xlink:href="#B" class="G H"/><use xlink:href="#B" stroke="#805552" class="I"/><path d="M410,76.66c-60.58-65.85-235-31-278.79,68.71-38.4,87.45-25.55,140.82.47,165.3" class="G H"/><path d="M410,76.66c-60.58-65.85-235-31-278.79,68.71-38.4,87.45-25.55,140.82.47,165.3" stroke="#996a5f" class="I"/><use xlink:href="#C" class="G H"/><use xlink:href="#C" stroke="#bf8979" class="I"/><use xlink:href="#D" class="G H"/><use xlink:href="#D" stroke="#d19882" class="I"/><path d="M278 478.87c10.65-16.22 2.07-45.38-24.53-53.51m110.37 0c9.94-18.51-1.36-47.19-30-51.15m105.8-19.79c2.63-17.3-15.71-38.38-40.95-35.5M487.35 271c-1.28-19-25.49-36.85-51.35-27.44m60-69.06c-13.8-18.62-44.38-10.9-56.11 5.86m25.21-85.12c-17.41-5.44-45.2 6.68-50.43 26.29M291.26 55.61c-15.76 14.6-14.26 42.88 12.11 52.53m36.4-3.71C324.07 118 326.56 146 352 154.67m-89.77-22.36c-15.7 13.52-10 39.38 15.45 48.05M304.77 11c-11.63 10-7.26 28.44 6.56 37m-97.88-15.33c-9.1 17.84-.57 39.79 17.16 43.33M141 83.18c-10.32 25.45 14.15 40 33.32 38.19m-83.55 43.17c0 25.6 29.7 28.22 43.73 21.36m-56.65 81.78C93 283.65 120 272.18 129 256M18.9 410c7.77 36.62 47.92 38.67 59 15.59m-26.23-97.68c-7.53 36.57 28.6 54.33 51.75 34.84M223 86.5c-13.84 12.87-8.4 43.42 21.75 52.89M154 150.5c-5.82 20.68 16.25 42.15 43.82 36.58m-65.11 65.56c9.33 24.74 49.33 21.39 59-4.76m6.11 97.12c31.08-3.83 30.34-34.55 28.84-49.43M201.12 406c30.59-4.32 30.18-28 29.19-42.63m69.02 7.4c24.37-14.82 18.92-43 5.44-59" stroke-width="15" class="G"/></g><defs ><path id="B" d="M131.67,310.67C159.08,363,252.46,418.21,356.67,361,545,257.62,497.15,55.24,268.05,151.22c-149,62.41-218.48,229.46-227.72,320.11"/><path id="C" d="M402.62,74.77C328,44.78,106,138,169.73,277.5,219.84,387.19,406.07,329.19,436,306.33"/><path id="D" d="M401.49,73.08c74.12,28.38,108,186.11-2.82,289.25C285.3,467.82,197.82,465.5,197.82,465.5"/></defs></svg>