<svg xmlns="http://www.w3.org/2000/svg" viewBox="0 0 512 512" xmlns:v="https://vecta.io/nano"><path d="M132.5 256.5h295" fill="none" stroke="#fff" stroke-miterlimit="10" stroke-width="70"/><path d="M292.28 375.17L411.02 256.5 292.28 137.83h100.77L511.72 256.5 393.05 375.17H292.28zM1.49 70.69v370a70.08 70.08 0 0 0 70 70h370a70.08 70.08 0 0 0 70-70v-55h-40v55a30 30 0 0 1-30 30h-370a30 30 0 0 1-30-30v-370a30 30 0 0 1 30-30h370a30 30 0 0 1 30 30v55h40v-55a70.08 70.08 0 0 0-70-70h-370a70.08 70.08 0 0 0-70 70z" fill="#fff"/></svg>