<svg xmlns="http://www.w3.org/2000/svg" viewBox="0 0 512 512"><defs><style>.cls-1{fill:none;stroke:#c8c8c8;stroke-miterlimit:10;stroke-width:16px;}</style></defs><title>D100</title><g id="Слой_5" data-name="Слой 5"><polygon class="cls-1" points="359.64 196.06 219.44 322.2 219.44 388.89 359.64 501.03 499.85 388.89 499.85 322.2 359.64 196.06"/><line class="cls-1" x1="359.64" y1="501.03" x2="359.64" y2="416.71"/><line class="cls-1" x1="219.44" y1="388.89" x2="266.59" y2="367.75"/><line class="cls-1" x1="359.64" y1="416.71" x2="266.59" y2="367.75"/><line class="cls-1" x1="359.64" y1="196.06" x2="266.59" y2="367.75"/><line class="cls-1" x1="499.86" y1="388.9" x2="452.71" y2="367.76"/><line class="cls-1" x1="359.64" y1="416.71" x2="452.71" y2="367.76"/><line class="cls-1" x1="359.64" y1="196.06" x2="452.71" y2="367.76"/><polygon class="cls-1" points="153.87 13.1 13.67 139.24 13.67 205.93 153.87 318.07 294.08 205.93 294.08 139.24 153.87 13.1"/><line class="cls-1" x1="153.87" y1="318.07" x2="153.87" y2="233.75"/><line class="cls-1" x1="13.67" y1="205.93" x2="60.82" y2="184.79"/><line class="cls-1" x1="153.87" y1="233.75" x2="60.82" y2="184.79"/><line class="cls-1" x1="153.87" y1="13.1" x2="60.82" y2="184.79"/><line class="cls-1" x1="294.09" y1="205.94" x2="246.94" y2="184.8"/><line class="cls-1" x1="153.87" y1="233.75" x2="246.94" y2="184.8"/><line class="cls-1" x1="153.87" y1="13.1" x2="246.94" y2="184.8"/></g></svg>