<svg xmlns="http://www.w3.org/2000/svg" viewBox="0 0 512 512"><defs><style>.cls-1{fill:none;stroke:#c8c8c8;stroke-miterlimit:10;stroke-width:20px;}</style></defs><title>D20</title><g id="Слой_2" data-name="Слой 2"><polygon class="cls-1" points="256 499.87 466.33 378.44 466.33 135.56 256 14.13 45.67 135.56 45.67 378.44 256 499.87"/><line class="cls-1" x1="466.33" y1="378.44" x2="256" y2="400.6"/><line class="cls-1" x1="45.67" y1="378.44" x2="256" y2="400.6"/><line class="cls-1" x1="256" y1="499.87" x2="256" y2="400.6"/><line class="cls-1" x1="45.67" y1="378.45" x2="131.64" y2="185.21"/><line class="cls-1" x1="256" y1="14.14" x2="131.64" y2="185.21"/><line class="cls-1" x1="45.67" y1="135.58" x2="131.64" y2="185.21"/><line class="cls-1" x1="466.33" y1="378.44" x2="380.36" y2="185.2"/><line class="cls-1" x1="256" y1="14.13" x2="380.36" y2="185.2"/><line class="cls-1" x1="466.33" y1="135.57" x2="380.36" y2="185.2"/><line class="cls-1" x1="380.36" y1="185.2" x2="131.64" y2="185.21"/><line class="cls-1" x1="256" y1="400.6" x2="380.36" y2="185.2"/><line class="cls-1" x1="131.64" y1="185.21" x2="256" y2="400.6"/></g></svg>