<svg id="Layer_1" data-name="Layer 1" xmlns="http://www.w3.org/2000/svg" viewBox="0 0 511 512.2"><defs><style>.cls-1{fill:none;stroke:#fff;stroke-miterlimit:10;stroke-width:70px;}.cls-2{fill:#fff;}</style></defs><title>login</title><line class="cls-1" x1="-0.5" y1="256.7" x2="294.5" y2="256.7"/><polygon class="cls-2" points="159.28 375.37 278.02 256.69 159.28 138.02 260.05 138.02 378.72 256.69 260.05 375.37 159.28 375.37"/><path class="cls-2" d="M440.5,1.7H70.5a70.08,70.08,0,0,0-70,70v55h40v-55a30,30,0,0,1,30-30h370a30,30,0,0,1,30,30v370a30,30,0,0,1-30,30H70.5a30,30,0,0,1-30-30v-55H.5v55a70.08,70.08,0,0,0,70,70h370a70.08,70.08,0,0,0,70-70V71.7A70.08,70.08,0,0,0,440.5,1.7Z"/></svg>