<svg xmlns="http://www.w3.org/2000/svg" viewBox="0 0 511 512.2" xmlns:v="https://vecta.io/nano"><path d="M-.5 256.7h295" fill="none" stroke="#fff" stroke-miterlimit="10" stroke-width="70"/><path d="M159.28 375.37l118.74-118.68-118.74-118.67h100.77l118.67 118.67-118.67 118.68H159.28zM440.5 1.7h-370a70.08 70.08 0 0 0-70 70v55h40v-55a30 30 0 0 1 30-30h370a30 30 0 0 1 30 30v370a30 30 0 0 1-30 30h-370a30 30 0 0 1-30-30v-55H.5v55a70.08 70.08 0 0 0 70 70h370a70.08 70.08 0 0 0 70-70v-370a70.08 70.08 0 0 0-70-70z" fill="#fff"/></svg>