<svg xmlns="http://www.w3.org/2000/svg" viewBox="0 0 512 512"><defs><style>.cls-1{fill:none;stroke:#fff;stroke-miterlimit:10;stroke-width:70px;}.cls-2{fill:#fff;}</style></defs><title>logout</title><g id="Layer_2" data-name="Layer 2"><line class="cls-1" x1="132.5" y1="256.5" x2="427.5" y2="256.5"/><polygon class="cls-2" points="292.28 375.17 411.02 256.5 292.28 137.83 393.05 137.83 511.72 256.5 393.05 375.17 292.28 375.17"/><path class="cls-2" d="M1.49,70.69v370a70.08,70.08,0,0,0,70,70h370a70.08,70.08,0,0,0,70-70v-55h-40v55a30,30,0,0,1-30,30h-370a30,30,0,0,1-30-30v-370a30,30,0,0,1,30-30h370a30,30,0,0,1,30,30v55h40v-55a70.08,70.08,0,0,0-70-70h-370A70.08,70.08,0,0,0,1.49,70.69Z"/></g></svg>