<svg xmlns="http://www.w3.org/2000/svg" xmlns:xlink="http://www.w3.org/1999/xlink" viewBox="0 0 512 512" xmlns:v="https://vecta.io/nano"><defs><linearGradient id="A" x1="16.14" y1="394.68" x2="496.53" y2="117.32" gradientUnits="userSpaceOnUse"><stop offset="0" stop-color="#945c26"/><stop offset=".15" stop-color="#985f29"/><stop offset=".3" stop-color="#a36932"/><stop offset=".44" stop-color="#b67940"/><stop offset=".58" stop-color="#d18f55"/><stop offset=".67" stop-color="#e6a165"/><stop offset="1" stop-color="#ffe8c6"/></linearGradient><linearGradient id="B" x1="432.26" y1="79.74" x2="79.74" y2="432.26" xlink:href="#A"/></defs><path d="M445.93 83.79V30.26H66.07V83.8h.36c44.14 0 79.93 77.1 79.93 172.21s-35.79 172.2-79.93 172.2h-.36v53.54h379.86v-53.54c-44.14 0-79.93-77.1-79.93-172.21s35.79-172.21 79.93-172.21z" fill="none" stroke-linejoin="round" stroke="#000" stroke-width="60"/><path d="M446.26 83.79V30.26H66.41V83.8h.36c44.14 0 79.92 77.1 79.92 172.21s-35.78 172.2-79.92 172.2h-.36v53.54h379.85v-53.54c-44.14 0-79.92-77.1-79.92-172.21s35.78-172.21 79.92-172.21z" fill="url(#A)"/><path d="M384.74 60.5H127.26s54.42 113.13 54.42 195.5-54.42 195.5-54.42 195.5h257.48S330.56 338.37 330.56 256s54.18-195.5 54.18-195.5z" fill="none" stroke-linejoin="round" stroke-width="40" stroke="url(#B)"/></svg>