<svg xmlns="http://www.w3.org/2000/svg" xmlns:xlink="http://www.w3.org/1999/xlink" viewBox="0 0 512 512" xmlns:v="https://vecta.io/nano"><defs><linearGradient id="A" x1="117.305" y1="394.688" x2="394.696" y2="117.298" gradientUnits="userSpaceOnUse"><stop offset="0" stop-color="#696969"/><stop offset=".19" stop-color="#6f6f6f"/><stop offset=".44" stop-color="#7f7f7f"/><stop offset=".72" stop-color="#999"/><stop offset="1" stop-color="#bababa"/></linearGradient><linearGradient id="B" x1="22.83" y1="256" x2="489.17" y2="256" gradientUnits="userSpaceOnUse"><stop offset="0" stop-color="#bababa"/><stop offset=".28" stop-color="#999"/><stop offset=".56" stop-color="#7f7f7f"/><stop offset=".81" stop-color="#6f6f6f"/><stop offset="1" stop-color="#696969"/></linearGradient><linearGradient id="C" x1="204.19" y1="167.28" x2="307.81" y2="167.28" xlink:href="#B"/><linearGradient id="D" x1="197.19" y1="167.28" x2="314.81" y2="167.28" xlink:href="#B"/><linearGradient id="E" x1="204.19" y1="271.19" x2="307.81" y2="271.19" xlink:href="#B"/><linearGradient id="F" x1="197.19" y1="271.19" x2="314.81" y2="271.19" xlink:href="#B"/><linearGradient id="G" x1="204.19" y1="376.18" x2="307.81" y2="376.18" xlink:href="#B"/><linearGradient id="H" x1="197.19" y1="376.18" x2="314.81" y2="376.18" xlink:href="#B"/><path id="I" d="M304.81 484.58l179.77-179.77v-97.62L304.81 27.42h-97.62L27.42 207.19v97.62l179.77 179.77h97.62z"/></defs><use xlink:href="#I" fill="none" stroke="#000" stroke-width="60" stroke-linejoin="round"/><use xlink:href="#I" fill="url(#A)"/><g stroke-linejoin="round"><path d="M301.52 469.17l167.65-167.65v-91.04L301.52 42.83h-91.04L42.83 210.48v91.04l167.65 167.65h91.04z" fill="none" stroke-width="40" stroke="url(#B)"/><g stroke-width="14"><path d="M307.81 132.4H204.19L256 202.16l51.81-69.76z" fill="url(#C)" stroke="url(#D)"/><path d="M307.81 236.31H204.19L256 306.08l51.81-69.77z" fill="url(#E)" stroke="url(#F)"/><path d="M307.81 341.3H204.19L256 411.06l51.81-69.76z" fill="url(#G)" stroke="url(#H)"/></g></g></svg>