<svg xmlns="http://www.w3.org/2000/svg" xmlns:xlink="http://www.w3.org/1999/xlink" viewBox="0 0 512 512"><defs><style>.cls-1,.cls-3{fill:none;stroke-linejoin:round;}.cls-1{stroke:#000;stroke-width:60px;}.cls-2{fill:url(#Безымянный_градиент_44);}.cls-3{stroke-width:40px;stroke:url(#Безымянный_градиент_28);}</style><linearGradient id="Безымянный_градиент_44" x1="488.16" y1="122.43" x2="24.5" y2="390.12" gradientUnits="userSpaceOnUse"><stop offset="0" stop-color="#b56f55"/><stop offset="0.27" stop-color="#b06950"/><stop offset="0.62" stop-color="#a45940"/><stop offset="1" stop-color="#8f4028"/></linearGradient><linearGradient id="Безымянный_градиент_28" x1="454.4" y1="141.92" x2="58.27" y2="370.62" gradientUnits="userSpaceOnUse"><stop offset="0" stop-color="#8f4028"/><stop offset="0.44" stop-color="#8f4028"/><stop offset="0.69" stop-color="#9d5c3b"/><stop offset="0.99" stop-color="#c98065"/></linearGradient></defs><title>copper</title><g id="Copper_coin" data-name="Copper coin"><path class="cls-1" d="M402,31.27H110.66L31.33,110.6V402l79.33,79.32H402L481.33,402V110.6ZM256.33,359.48a103.21,103.21,0,1,1,103.2-103.21A103.21,103.21,0,0,1,256.33,359.48Z"/><path class="cls-2" d="M402,31.27H110.66L31.33,110.6V402l79.33,79.32H402L481.33,402V110.6ZM256.33,359.48a103.21,103.21,0,1,1,103.2-103.21A103.21,103.21,0,0,1,256.33,359.48Z"/><path class="cls-3" d="M369.91,80.86H142.76L80.92,142.7V369.85l61.84,61.84H369.91l61.84-61.84V142.7Z"/></g></svg>