<svg xmlns="http://www.w3.org/2000/svg" xmlns:xlink="http://www.w3.org/1999/xlink" viewBox="0 0 512 512"><defs><style>.cls-1,.cls-3,.cls-4{fill:none;}.cls-1,.cls-4{stroke:#000;}.cls-1,.cls-3,.cls-8{stroke-linejoin:round;}.cls-1{stroke-width:60px;}.cls-2{fill:url(#Новый_образец_градиентной_зал_4);}.cls-3{stroke-width:40px;stroke:url(#Новый_образец_градиентной_зал_4-2);}.cls-4{stroke-miterlimit:10;stroke-width:30px;}.cls-5{fill:url(#Безымянный_градиент_57);}.cls-6{fill:url(#Безымянный_градиент_57-2);}.cls-7{fill:url(#Безымянный_градиент_58);}.cls-8{stroke-linecap:round;stroke-width:16px;fill:url(#Безымянный_градиент_61);stroke:url(#Безымянный_градиент_64);}</style><linearGradient id="Новый_образец_градиентной_зал_4" x1="30.71" y1="256" x2="481.29" y2="256" gradientUnits="userSpaceOnUse"><stop offset="0" stop-color="#305973"/><stop offset="1" stop-color="#97c2de"/></linearGradient><linearGradient id="Новый_образец_градиентной_зал_4-2" x1="409.54" y1="102.34" x2="102.46" y2="409.41" xlink:href="#Новый_образец_градиентной_зал_4"/><linearGradient id="Безымянный_градиент_57" x1="119.23" y1="208.38" x2="355.73" y2="208.38" gradientTransform="matrix(1.01, 0, 0, -0.59, -2.11, 352.31)" gradientUnits="userSpaceOnUse"><stop offset="0" stop-color="#305973"/><stop offset="0.39" stop-color="#325b75"/><stop offset="0.56" stop-color="#39627c"/><stop offset="0.68" stop-color="#456e89"/><stop offset="0.79" stop-color="#56809b"/><stop offset="0.88" stop-color="#6d97b2"/><stop offset="0.96" stop-color="#88b2ce"/><stop offset="1" stop-color="#97c2de"/></linearGradient><linearGradient id="Безымянный_градиент_57-2" x1="117.44" y1="205.56" x2="353.94" y2="205.56" gradientTransform="translate(36.4 106.36) scale(1.01 0.59)" xlink:href="#Безымянный_градиент_57"/><linearGradient id="Безымянный_градиент_58" x1="145.73" y1="166.34" x2="244.76" y2="220.19" gradientTransform="translate(49.5 28.85) scale(0.68 0.77)" gradientUnits="userSpaceOnUse"><stop offset="0" stop-color="#97c2de"/><stop offset="0.04" stop-color="#88b2ce"/><stop offset="0.12" stop-color="#6d97b2"/><stop offset="0.21" stop-color="#56809b"/><stop offset="0.32" stop-color="#456e89"/><stop offset="0.44" stop-color="#39627c"/><stop offset="0.61" stop-color="#325b75"/><stop offset="1" stop-color="#305973"/></linearGradient><linearGradient id="Безымянный_градиент_61" x1="448.14" y1="188.96" x2="332.38" y2="179.38" gradientTransform="translate(276.17 -249.19) rotate(57.86)" xlink:href="#Безымянный_градиент_57"/><linearGradient id="Безымянный_градиент_64" x1="381.02" y1="156.63" x2="392.26" y2="218.66" gradientTransform="translate(276.17 -249.19) rotate(57.86)" gradientUnits="userSpaceOnUse"><stop offset="0" stop-color="#97c2de"/><stop offset="0.02" stop-color="#92bdd9"/><stop offset="0.12" stop-color="#749eb9"/><stop offset="0.24" stop-color="#5b85a0"/><stop offset="0.37" stop-color="#48718c"/><stop offset="0.51" stop-color="#3a637e"/><stop offset="0.69" stop-color="#325b75"/><stop offset="1" stop-color="#305973"/></linearGradient></defs><title>electrum</title><g id="Electrum_coin" data-name="Electrum coin"><path class="cls-1" d="M404.12,74.68H107.88C60.59,118.8,30.71,183.68,30.71,256s29.88,137.2,77.17,181.32H404.12c47.29-44.12,77.17-109,77.17-181.32S451.41,118.8,404.12,74.68Z"/><path class="cls-2" d="M404.12,74.68H107.88C60.59,118.8,30.71,183.68,30.71,256s29.88,137.2,77.17,181.32H404.12c47.29-44.12,77.17-109,77.17-181.32S451.41,118.8,404.12,74.68ZM256,428.05a77.55,77.55,0,1,1,77.55-77.55A77.55,77.55,0,0,1,256,428.05Z"/><path class="cls-3" d="M375.92,97H136.08C97.8,135.65,73.61,192.5,73.61,255.88S97.8,376.1,136.08,414.75H375.92c38.28-38.65,62.47-95.5,62.47-158.87S414.2,135.65,375.92,97Z"/><circle class="cls-4" cx="256" cy="344.16" r="65.84"/><rect class="cls-5" x="118.08" y="216.13" width="238.4" height="25.74" rx="12" transform="translate(554.71 318.32) rotate(151.73)"/><rect class="cls-6" x="154.78" y="215.13" width="238.4" height="25.74" rx="12" transform="translate(143.43 -103.67) rotate(28.75)"/><rect class="cls-7" x="156.63" y="132.81" width="53.07" height="90.73" rx="12" transform="translate(113.63 -67.71) rotate(30)"/><polygon class="cls-8" points="282.79 137.19 344.8 167.02 344.25 236.16 330.66 175.9 282.79 137.19"/></g></svg>