<svg xmlns="http://www.w3.org/2000/svg" xmlns:xlink="http://www.w3.org/1999/xlink" viewBox="0 0 512 512" xmlns:v="https://vecta.io/nano"><defs><linearGradient id="A" x1="30.71" y1="256" x2="481.29" y2="256" gradientUnits="userSpaceOnUse"><stop offset="0" stop-color="#305973"/><stop offset="1" stop-color="#97c2de"/></linearGradient><linearGradient id="B" x1="409.54" y1="102.34" x2="102.46" y2="409.41" xlink:href="#A"/><linearGradient id="C" x1="118.312" y1="229.366" x2="357.177" y2="229.366" gradientUnits="userSpaceOnUse"><stop offset="0" stop-color="#305973"/><stop offset=".39" stop-color="#325b75"/><stop offset=".56" stop-color="#39627c"/><stop offset=".68" stop-color="#456e89"/><stop offset=".79" stop-color="#56809b"/><stop offset=".88" stop-color="#6d97b2"/><stop offset=".96" stop-color="#88b2ce"/><stop offset="1" stop-color="#97c2de"/></linearGradient><linearGradient id="D" x1="155.014" y1="227.64" x2="393.879" y2="227.64" xlink:href="#C"/><linearGradient id="E" x1="148.596" y1="156.932" x2="215.937" y2="198.396" gradientUnits="userSpaceOnUse"><stop offset="0" stop-color="#97c2de"/><stop offset=".04" stop-color="#88b2ce"/><stop offset=".12" stop-color="#6d97b2"/><stop offset=".21" stop-color="#56809b"/><stop offset=".32" stop-color="#456e89"/><stop offset=".44" stop-color="#39627c"/><stop offset=".61" stop-color="#325b75"/><stop offset="1" stop-color="#305973"/></linearGradient><linearGradient id="F" x1="354.574" y1="230.798" x2="301.103" y2="127.681" xlink:href="#C"/><linearGradient id="G" x1="346.242" y1="156.765" x2="299.698" y2="199.281" gradientUnits="userSpaceOnUse"><stop offset="0" stop-color="#97c2de"/><stop offset=".02" stop-color="#92bdd9"/><stop offset=".12" stop-color="#749eb9"/><stop offset=".24" stop-color="#5b85a0"/><stop offset=".37" stop-color="#48718c"/><stop offset=".51" stop-color="#3a637e"/><stop offset=".69" stop-color="#325b75"/><stop offset="1" stop-color="#305973"/></linearGradient></defs><path d="M404.12,74.68H107.88C60.59,118.8,30.71,183.68,30.71,256s29.88,137.2,77.17,181.32H404.12c47.29-44.12,77.17-109,77.17-181.32S451.41,118.8,404.12,74.68Z" fill="none" stroke="#000" stroke-linejoin="round" stroke-width="60"/><path d="M404.12,74.68H107.88C60.59,118.8,30.71,183.68,30.71,256s29.88,137.2,77.17,181.32H404.12c47.29-44.12,77.17-109,77.17-181.32S451.41,118.8,404.12,74.68ZM256,428.05a77.55,77.55,0,1,1,77.55-77.55A77.55,77.55,0,0,1,256,428.05Z" fill="url(#A)"/><g fill="none"><path d="M375.92,97H136.08C97.8,135.65,73.61,192.5,73.61,255.88S97.8,376.1,136.08,414.75H375.92c38.28-38.65,62.47-95.5,62.47-158.87S414.2,135.65,375.92,97Z" stroke-linejoin="round" stroke-width="40" stroke="url(#B)"/><circle cx="256" cy="344.16" r="65.84" stroke="#000" stroke-width="30"/></g><rect x="118.08" y="216.13" width="238.4" height="25.74" rx="12" transform="matrix(-.880725 .473627 -.473627 -.880725 554.71 318.32)" fill="url(#C)"/><rect x="154.78" y="215.13" width="238.4" height="25.74" rx="12" transform="matrix(.876727 .480989 -.480989 .876727 143.43 -103.67)" fill="url(#D)"/><rect x="156.63" y="132.81" width="53.07" height="90.73" rx="12" transform="matrix(.866025 .5 -.5 .866025 113.63 -67.71)" fill="url(#E)"/><path d="M282.79 137.19l62.01 29.83-.55 69.14-13.59-60.26-47.87-38.71z" stroke-linejoin="round" stroke-width="16" fill="url(#F)" stroke="url(#G)"/></svg>