<svg xmlns="http://www.w3.org/2000/svg" xmlns:xlink="http://www.w3.org/1999/xlink" viewBox="0 0 512 512"><defs><style>.cls-1,.cls-3{fill:none;stroke-linecap:round;stroke-linejoin:round;}.cls-1{stroke:#000;stroke-width:60px;}.cls-2{fill:url(#Новый_образец_градиентной_залив);}.cls-3{stroke-width:40px;stroke:url(#Новый_образец_градиентной_залив-2);}</style><linearGradient id="Новый_образец_градиентной_залив" x1="16.14" y1="394.68" x2="496.53" y2="117.32" gradientUnits="userSpaceOnUse"><stop offset="0" stop-color="#945c26"/><stop offset="0.15" stop-color="#985f29"/><stop offset="0.3" stop-color="#a36932"/><stop offset="0.44" stop-color="#b67940"/><stop offset="0.58" stop-color="#d18f55"/><stop offset="0.67" stop-color="#e6a165"/><stop offset="1" stop-color="#ffe8c6"/></linearGradient><linearGradient id="Новый_образец_градиентной_залив-2" x1="432.26" y1="79.74" x2="79.74" y2="432.26" xlink:href="#Новый_образец_градиентной_залив"/></defs><title>gold</title><g id="Gold_coin" data-name="Gold coin"><path class="cls-1" d="M445.93,83.79V30.26H66.07V83.8h.36c44.14,0,79.93,77.1,79.93,172.21S110.57,428.21,66.43,428.21h-.36v53.54H445.93V428.21C401.79,428.21,366,351.11,366,256S401.79,83.79,445.93,83.79Z"/><path class="cls-2" d="M446.26,83.79V30.26H66.41V83.8h.36c44.14,0,79.92,77.1,79.92,172.21S110.91,428.21,66.77,428.21h-.36v53.54H446.26V428.21c-44.14,0-79.92-77.1-79.92-172.21S402.12,83.79,446.26,83.79Z"/><path class="cls-3" d="M384.74,60.5H127.26S181.68,173.63,181.68,256s-54.42,195.5-54.42,195.5H384.74S330.56,338.37,330.56,256,384.74,60.5,384.74,60.5Z"/></g></svg>