<svg xmlns="http://www.w3.org/2000/svg" xmlns:xlink="http://www.w3.org/1999/xlink" viewBox="0 0 512 512"><defs><style>.cls-1,.cls-3{fill:none;}.cls-1{stroke:#000;stroke-width:60px;}.cls-1,.cls-3,.cls-4,.cls-5,.cls-6{stroke-linecap:round;stroke-linejoin:round;}.cls-2{fill:url(#Новый_образец_градиентной_зал_3);}.cls-3{stroke-width:40px;stroke:url(#Безымянный_градиент_34);}.cls-4,.cls-5,.cls-6{stroke-width:14px;}.cls-4{fill:url(#linear-gradient);stroke:url(#linear-gradient-2);}.cls-5{fill:url(#linear-gradient-3);stroke:url(#linear-gradient-4);}.cls-6{fill:url(#linear-gradient-5);stroke:url(#linear-gradient-6);}</style><linearGradient id="Новый_образец_градиентной_зал_3" x1="59.72" y1="255.94" x2="452.01" y2="255.94" gradientTransform="translate(-105.9 255.94) rotate(-45)" gradientUnits="userSpaceOnUse"><stop offset="0" stop-color="#696969"/><stop offset="0.19" stop-color="#6f6f6f"/><stop offset="0.44" stop-color="#7f7f7f"/><stop offset="0.72" stop-color="#999"/><stop offset="1" stop-color="#bababa"/></linearGradient><linearGradient id="Безымянный_градиент_34" x1="22.83" y1="256" x2="489.17" y2="256" gradientTransform="translate(0 0)" gradientUnits="userSpaceOnUse"><stop offset="0" stop-color="#bababa"/><stop offset="0.28" stop-color="#999"/><stop offset="0.56" stop-color="#7f7f7f"/><stop offset="0.81" stop-color="#6f6f6f"/><stop offset="1" stop-color="#696969"/></linearGradient><linearGradient id="linear-gradient" x1="204.19" y1="167.28" x2="307.81" y2="167.28" xlink:href="#Безымянный_градиент_34"/><linearGradient id="linear-gradient-2" x1="197.19" y1="167.28" x2="314.81" y2="167.28" xlink:href="#Безымянный_градиент_34"/><linearGradient id="linear-gradient-3" x1="204.19" y1="271.19" x2="307.81" y2="271.19" xlink:href="#Безымянный_градиент_34"/><linearGradient id="linear-gradient-4" x1="197.19" y1="271.19" x2="314.81" y2="271.19" xlink:href="#Безымянный_градиент_34"/><linearGradient id="linear-gradient-5" x1="204.19" y1="376.18" x2="307.81" y2="376.18" xlink:href="#Безымянный_градиент_34"/><linearGradient id="linear-gradient-6" x1="197.19" y1="376.18" x2="314.81" y2="376.18" xlink:href="#Безымянный_градиент_34"/></defs><title>platinum</title><g id="Platinum_coin" data-name="Platinum coin"><polygon class="cls-1" points="304.81 484.58 484.58 304.81 484.58 207.19 304.81 27.42 207.19 27.42 27.42 207.19 27.42 304.81 207.19 484.58 304.81 484.58"/><polygon class="cls-2" points="304.81 484.58 484.58 304.81 484.58 207.19 304.81 27.42 207.19 27.42 27.42 207.19 27.42 304.81 207.19 484.58 304.81 484.58"/><polygon class="cls-3" points="301.52 469.17 469.17 301.52 469.17 210.48 301.52 42.83 210.48 42.83 42.83 210.48 42.83 301.52 210.48 469.17 301.52 469.17"/><polygon class="cls-4" points="307.81 132.4 204.19 132.4 256 202.16 307.81 132.4"/><polygon class="cls-5" points="307.81 236.31 204.19 236.31 256 306.08 307.81 236.31"/><polygon class="cls-6" points="307.81 341.3 204.19 341.3 256 411.06 307.81 341.3"/></g></svg>