<svg xmlns="http://www.w3.org/2000/svg" viewBox="0 0 512 512"><defs><style>.cls-1,.cls-2{fill:none;stroke-width:40px;}.cls-1,.cls-2,.cls-8{stroke:#1d1d1b;}.cls-1{stroke-linecap:round;stroke-linejoin:round;}.cls-2,.cls-8,.cls-9{stroke-miterlimit:10;}.cls-3{fill:#bbbdc2;}.cls-4{fill:#828487;}.cls-5{fill:#cbaf87;}.cls-6{fill:#96989c;}.cls-7,.cls-8,.cls-9{fill:#d3d4d9;}.cls-8{stroke-width:20px;}.cls-9{stroke:#d3d4d9;stroke-width:6px;}</style></defs><title>axe</title><g id="Слой_2" data-name="Слой 2"><path class="cls-1" d="M375.2,84.48l34.87-15,34.87-15-15,34.87-15,34.87c.61-11.54-1.09-20.7-5.25-27.33L351.51,159.2c-1.31,1.54-1.66,3.33-.81,4.17l3.2,3.21c.94.94.41,3-1.18,4.57L70.41,453.46c-1.59,1.59-3.64,2.12-4.57,1.19l-20.5-20.5c-.94-.94-.41-3,1.19-4.57l282.3-282.31c1.59-1.59,3.64-2.12,4.57-1.19l3.51,3.51c.85.85,2.65.49,4.19-.84l62.51-58.52C397.07,85.3,387.67,83.32,375.2,84.48Z"/><path class="cls-2" d="M406.57,92.82a19.45,19.45,0,0,0-3.07-2.66l.11.07L382.29,110l7.88,7.91,19.49-21.08v0A13.31,13.31,0,0,0,406.57,92.82Z"/><path class="cls-3" d="M375.2,84.48l34.87-15,34.87-15-15,34.87-15,34.87c.61-11.54-1.09-20.7-5.25-27.33L351.51,159.2c-1.31,1.54-1.66,3.33-.81,4.17l3.2,3.21c.94.94.41,3-1.18,4.57L70.41,453.46c-1.59,1.59-3.64,2.12-4.57,1.19l-20.5-20.5c-.94-.94-.41-3,1.19-4.57l282.3-282.31c1.59-1.59,3.64-2.12,4.57-1.19l3.51,3.51c.85.85,2.65.49,4.19-.84l62.51-58.52C397.07,85.3,387.67,83.32,375.2,84.48Z"/><path class="cls-4" d="M406.57,92.82a19.45,19.45,0,0,0-3.07-2.66l.11.07L382.29,110l7.88,7.91,19.49-21.08v0A13.31,13.31,0,0,0,406.57,92.82Z"/><path class="cls-2" d="M42.64,426.14l30.61,30.61a3.11,3.11,0,0,1,.26,4.36L61.83,472.78a3.09,3.09,0,0,1-4.36-.26l-5.29-5.29a15.17,15.17,0,0,1-3.93,6.86c-4.4,4.39-15,3.1-23.25,4.7a3.88,3.88,0,0,1-4.4-4.4c1.6-8.26.31-18.85,4.7-23.25a15.11,15.11,0,0,1,6.86-3.93l-5.29-5.29a3.11,3.11,0,0,1-.27-4.37l11.68-11.67A3.11,3.11,0,0,1,42.64,426.14Z"/><path class="cls-5" d="M42.64,426.14l30.61,30.61a3.11,3.11,0,0,1,.26,4.36L61.83,472.78a3.09,3.09,0,0,1-4.36-.26l-5.29-5.29a15.17,15.17,0,0,1-3.93,6.86c-4.4,4.39-15,3.1-23.25,4.7a3.88,3.88,0,0,1-4.4-4.4c1.6-8.26.31-18.85,4.7-23.25a15.11,15.11,0,0,1,6.86-3.93l-5.29-5.29a3.11,3.11,0,0,1-.27-4.37l11.68-11.67A3.11,3.11,0,0,1,42.64,426.14Z"/><path class="cls-4" d="M333.89,190,310,166.09l-61.53,61.53c6.64-2.55,18-6,23.9-1.3,6.64,5.35,2.58,18.42,0,25.19Z"/><path class="cls-1" d="M465.27,140.08s-13.71,50-26.11,56.41c-17.48,9-52.05-8-87.21-30.67a22.87,22.87,0,0,0-21.71-18.73C306.68,114.17,285.91,88,291.18,77.75c4.6-8.9,52.51-43.4,52.51-43.4l-58.1-1.11L207.65,48.82l-15,77.36,4.15,55.06s31.55-48.15,40.45-52.74c10.7-5.52,35.59,16.27,69.22,41.73a22.91,22.91,0,0,0,19,22.35c21.53,34.38,39,70.56,30.45,87.18-6.4,12.4-64.72,42.87-64.72,42.87L361.89,332l117.22-11.45,12.26-118Z"/><path class="cls-6" d="M491.37,202.49l-26.1-62.41s-13.71,50-26.11,56.41c-20.09,10.37-62.75-13.65-102.94-41.13-26.89-36.72-50.75-66.54-45-77.61,4.6-8.9,52.51-43.4,52.51-43.4l-58.1-1.11L207.65,48.82l-15,77.36,4.15,55.06s31.55-48.15,40.45-52.74c11.64-6,40.13,18.69,78.26,48.72,25.61,38.38,50.25,83.42,40.39,102.54-6.4,12.4-64.72,42.87-64.72,42.87L361.89,332l117.22-11.45Z"/><rect class="cls-6" x="215.42" y="257.54" width="20.27" height="33.78" transform="translate(-127.99 239.87) rotate(-45)"/><rect class="cls-2" x="229.6" y="232.21" width="49.82" height="25.33" rx="9.42" transform="translate(247.7 -108.25) rotate(45)"/><rect class="cls-5" x="229.6" y="232.21" width="49.82" height="25.33" rx="9.42" transform="translate(247.7 -108.25) rotate(45)"/><polygon class="cls-7" points="491.37 202.49 465.27 140.08 477.39 191.2 466.94 201.65 478.52 208.46 464.22 261.03 446.52 258.86 455.56 284.4 433.21 295.71 425.28 310.27 395.58 297.29 371.97 314.28 355.02 302.9 340.25 311.42 291.18 322.63 361.89 331.96 479.11 320.51 491.37 202.49"/><path class="cls-8" d="M352.37,147a32.49,32.49,0,1,0,0,45.95A32.49,32.49,0,0,0,352.37,147Zm-37.72,37.72a20.86,20.86,0,1,1,29.49,0A20.87,20.87,0,0,1,314.65,184.74Z"/><polygon class="cls-7" points="205.02 129.02 219.72 121.43 210.76 99.73 226.75 88.65 216.29 72.62 238.23 72.27 247.35 55.3 261.11 64.1 286.63 47.41 293 53.79 308.68 44 343.69 34.35 285.59 33.24 207.66 48.83 192.65 126.18 196.8 181.25 209.56 143.12 205.02 129.02"/><path class="cls-9" d="M344.8,154.58a21.79,21.79,0,1,0,0,30.82A21.8,21.8,0,0,0,344.8,154.58Zm-25.29,25.3a14,14,0,1,1,19.78,0A14,14,0,0,1,319.51,179.88Z"/></g></svg>