<svg xmlns="http://www.w3.org/2000/svg" xmlns:xlink="http://www.w3.org/1999/xlink" viewBox="0 0 512 512" xmlns:v="https://vecta.io/nano"><style><![CDATA[.J{stroke:#000}.K{stroke-miterlimit:10}.L{stroke-width:40}.M{stroke-linejoin:round}]]></style><g fill="none" class="J L"><use xlink:href="#B" class="M"/><use xlink:href="#C" class="K"/></g><use xlink:href="#B" fill="#bbbdc2"/><use xlink:href="#C" fill="#828487"/><use xlink:href="#D" fill="none" class="J K L"/><use xlink:href="#D" fill="#cbaf87"/><path d="M333.89,190,310,166.09l-61.53,61.53c6.64-2.55,18-6,23.9-1.3,6.64,5.35,2.58,18.42,0,25.19Z" fill="#828487"/><path d="M465.27 140.08s-13.71 50-26.11 56.41c-17.48 9-52.05-8-87.21-30.67a22.87 22.87 0 0 0-21.71-18.73c-23.56-32.92-44.33-59.09-39.06-69.34 4.6-8.9 52.51-43.4 52.51-43.4l-58.1-1.11-77.94 15.58-15 77.36 4.15 55.06s31.55-48.15 40.45-52.74c10.7-5.52 35.59 16.27 69.22 41.73a22.91 22.91 0 0 0 19 22.35c21.53 34.38 39 70.56 30.45 87.18-6.4 12.4-64.72 42.87-64.72 42.87l70.69 9.37 117.22-11.45 12.26-118z" fill="none" class="J L M"/><path d="M491.37 202.49l-26.1-62.41s-13.71 50-26.11 56.41c-20.09 10.37-62.75-13.65-102.94-41.13-26.89-36.72-50.75-66.54-45-77.61 4.6-8.9 52.51-43.4 52.51-43.4l-58.1-1.11-77.98 15.58-15 77.36 4.15 55.06s31.55-48.15 40.45-52.74c11.64-6 40.13 18.69 78.26 48.72 25.61 38.38 50.25 83.42 40.39 102.54-6.4 12.4-64.72 42.87-64.72 42.87l70.71 9.37 117.22-11.45zm-284.927 67.163l14.333-14.333 23.886 23.886-14.333 14.333z" fill="#96989c"/><g transform="matrix(.707107 .707107 -.707107 .707107 247.7 -108.25)"><rect x="229.6" y="232.21" width="49.82" height="25.33" rx="9.42" fill="none" class="J K L"/><rect x="229.6" y="232.21" width="49.82" height="25.33" rx="9.42" fill="#cbaf87"/></g><g fill="#d3d4d9"><path d="M491.37 202.49l-26.1-62.41 12.12 51.12-10.45 10.45 11.58 6.81-14.3 52.57-17.7-2.17 9.04 25.54-22.35 11.31-7.93 14.56-29.7-12.98-23.61 16.99-16.95-11.38-14.77 8.52-49.07 11.21 70.71 9.33 117.22-11.45 12.26-118.02z"/><path d="M352.37 147a32.49 32.49 0 1 0 0 45.95 32.49 32.49 0 0 0 0-45.95zm-37.72 37.72a20.86 20.86 0 1 1 29.49 0 20.87 20.87 0 0 1-29.49.02z" stroke-width="20" class="J K"/><path d="M205.02 129.02l14.7-7.59-8.96-21.7 15.99-11.08-10.46-16.03 21.94-.35 9.12-16.97 13.76 8.8 25.52-16.69 6.37 6.38L308.68 44l35.01-9.65-58.1-1.11-77.93 15.59-15.01 77.35 4.15 55.07 12.76-38.13-4.54-14.1z"/><path d="M344.8 154.58a21.79 21.79 0 1 0 0 30.82 21.8 21.8 0 0 0 0-30.82zm-25.29 25.3a14 14 0 1 1 19.78 0 14 14 0 0 1-19.78 0z" stroke="#d3d4d9" stroke-width="6" class="K"/></g><defs ><path id="B" d="M375.2 84.48l34.87-15 34.87-15-15 34.87-15 34.87c.61-11.54-1.09-20.7-5.25-27.33l-58.18 62.31c-1.31 1.54-1.66 3.33-.81 4.17l3.2 3.21c.94.94.41 3-1.18 4.57L70.41 453.46c-1.59 1.59-3.64 2.12-4.57 1.19l-20.5-20.5c-.94-.94-.41-3 1.19-4.57l282.3-282.31c1.59-1.59 3.64-2.12 4.57-1.19l3.51 3.51c.85.85 2.65.49 4.19-.84l62.51-58.52c-6.54-4.93-15.94-6.91-28.41-5.75z"/><path id="C" d="M406.57 92.82a19.45 19.45 0 0 0-3.07-2.66l.11.07L382.29 110l7.88 7.91 19.49-21.08h0a13.31 13.31 0 0 0-3.09-4.01z"/><path id="D" d="M42.64 426.14l30.61 30.61a3.11 3.11 0 0 1 .26 4.36l-11.68 11.67a3.09 3.09 0 0 1-4.36-.26l-5.29-5.29a15.17 15.17 0 0 1-3.93 6.86c-4.4 4.39-15 3.1-23.25 4.7a3.88 3.88 0 0 1-4.4-4.4c1.6-8.26.31-18.85 4.7-23.25a15.11 15.11 0 0 1 6.86-3.93l-5.29-5.29a3.11 3.11 0 0 1-.27-4.37l11.68-11.67a3.11 3.11 0 0 1 4.36.26z"/></defs></svg>