<svg id="Capa_1" enable-background="new 0 0 512 512" height="512" viewBox="0 0 512 512" width="512" xmlns="http://www.w3.org/2000/svg"><g id="XMLID_1404_"><g id="XMLID_1377_"><path id="XMLID_1447_" d="m98.702 241.82h219.058v44.084h-219.058z" fill="#e2e9ee" transform="matrix(.707 -.707 .707 .707 -125.589 224.525)"/></g><g id="XMLID_1349_"><path id="XMLID_1438_" d="m365.763 63.036h42.505v44.084h-42.505z" fill="#e2e9ee" transform="matrix(.707 -.707 .707 .707 53.195 298.58)"/></g><g id="XMLID_1350_"><path id="XMLID_1437_" d="m502 158.317c0 87.083-70.466 157.549-157.549 157.549l-40.71-114.872-64.739-64.739 27.66-27.66-35.646-35.646c30.777-30.777 80.676-30.777 111.453 0l44.659 44.659z" fill="#e2e9ee"/></g><g id="XMLID_1295_"><g id="XMLID_1322_"><path d="m453.908 141.273v17.044c0 29.271-11.376 56.768-32.032 77.425-20.657 20.657-48.153 32.033-77.425 32.032h-17.044l-23.667-66.78-64.739-64.739 27.66-27.66-35.646-35.646c30.777-30.777 80.676-30.777 111.453 0l44.659 44.659z" fill="#a7bdcd"/></g></g><g id="XMLID_234_"><path id="XMLID_181_" d="m52.256 320.404h56.107v142.759h-56.107z" fill="#ff7b79" transform="matrix(-.707 -.707 .707 -.707 -139.937 725.603)"/></g><g id="XMLID_1449_"><path id="XMLID_1482_" d="m505.34 148.891-101.022-35.802 20.382-20.382c3.905-3.905 3.905-10.237 0-14.143l-31.172-31.172c-3.905-3.904-10.237-3.904-14.143 0l-24.165 24.166-5.681-5.681c-34.626-34.626-90.968-34.627-125.595 0-3.905 3.905-3.905 10.237 0 14.142l28.575 28.575-20.589 20.59c-3.905 3.905-3.905 10.237.001 14.142l25.761 25.761-40.473 40.473c-3.905 3.905-3.905 10.237 0 14.143 1.953 1.953 4.512 2.929 7.071 2.929s5.119-.976 7.071-2.929l40.473-40.473 17.029 17.029-142.495 142.495-17.03-17.03 38.384-38.384c3.905-3.905 3.905-10.237 0-14.143-3.905-3.905-10.237-3.905-14.143 0l-38.976 38.976c-1.155-.454-2.393-.701-3.658-.701-2.652 0-5.196 1.054-7.071 2.929l-100.945 100.947c-3.905 3.905-3.905 10.237 0 14.143l39.673 39.673c1.953 1.953 4.512 2.929 7.071 2.929s5.119-.977 7.071-2.929l100.946-100.945c2.902-2.902 3.643-7.143 2.231-10.734l139.301-139.301 35.802 101.022c1.415 3.992 5.191 6.66 9.426 6.66 44.788 0 86.872-17.418 118.501-49.047 31.63-31.63 49.049-73.714 49.049-118.502 0-4.235-2.668-8.011-6.66-9.426zm-118.883-80.285 17.03 17.03-17.094 17.094-17.03-17.03zm-275.512 267.01 25.531 25.532-19.506 19.506-25.532-25.531zm-27.623 78.686-25.531-25.531 19.506-19.506 25.532 25.531zm-33.649 33.649-25.531-25.531 19.506-19.506 25.531 25.531zm261.138-254.029-57.667-57.667 20.589-20.59c3.905-3.905 3.905-10.237 0-14.142l-28.062-28.063c26.925-20.057 65.299-17.869 89.727 6.559l44.659 44.658c1.053 1.053 2.327 1.857 3.73 2.354l60.121 21.307v9.979c0 26.601-10.335 51.585-29.104 70.353-18.768 18.768-43.753 29.104-70.353 29.104h-9.979l-21.307-60.121c-.496-1.404-1.3-2.679-2.354-3.731zm40.647 111.779-9.897-27.928h2.891.002c31.94 0 61.949-12.417 84.493-34.961 22.546-22.545 34.962-52.553 34.961-84.496v-2.891l27.928 9.897c-3.561 75.798-64.582 136.818-140.378 140.379z"/><path id="XMLID_1584_" d="m192.47 258.449c2.63 0 5.21-1.07 7.07-2.93s2.93-4.44 2.93-7.07-1.07-5.21-2.93-7.07-4.44-2.93-7.07-2.93-5.21 1.07-7.07 2.93-2.93 4.44-2.93 7.07 1.07 5.21 2.93 7.07 4.44 2.93 7.07 2.93z"/></g></g></svg>