<svg id="Слой_2_copy" data-name="Слой 2 copy" xmlns="http://www.w3.org/2000/svg" viewBox="0 0 512 512"><defs><style>.cls-1,.cls-2,.cls-3,.cls-4,.cls-5,.cls-6{fill:none;stroke-linecap:round;stroke-miterlimit:10;}.cls-1,.cls-6{stroke:#000;}.cls-1{stroke-width:80px;}.cls-2{stroke:#805552;}.cls-2,.cls-3,.cls-4,.cls-5{stroke-width:40px;}.cls-3{stroke:#996a5f;}.cls-4{stroke:#bf8979;}.cls-5{stroke:#d19882;}.cls-6{stroke-width:15px;}</style></defs><title>rope</title><path class="cls-1" d="M131.67,310.67C159.08,363,252.46,418.21,356.67,361,545,257.62,497.15,55.24,268.05,151.22c-149,62.41-218.48,229.46-227.72,320.11"/><path class="cls-2" d="M131.67,310.67C159.08,363,252.46,418.21,356.67,361,545,257.62,497.15,55.24,268.05,151.22c-149,62.41-218.48,229.46-227.72,320.11"/><path class="cls-1" d="M410,76.66c-60.58-65.85-235-31-278.79,68.71-38.4,87.45-25.55,140.82.47,165.3"/><path class="cls-3" d="M410,76.66c-60.58-65.85-235-31-278.79,68.71-38.4,87.45-25.55,140.82.47,165.3"/><path class="cls-1" d="M402.62,74.77C328,44.78,106,138,169.73,277.5,219.84,387.19,406.07,329.19,436,306.33"/><path class="cls-4" d="M402.62,74.77C328,44.78,106,138,169.73,277.5,219.84,387.19,406.07,329.19,436,306.33"/><path class="cls-1" d="M401.49,73.08c74.12,28.38,108,186.11-2.82,289.25C285.3,467.82,197.82,465.5,197.82,465.5"/><path class="cls-5" d="M401.49,73.08c74.12,28.38,108,186.11-2.82,289.25C285.3,467.82,197.82,465.5,197.82,465.5"/><path class="cls-6" d="M278,478.87c10.65-16.22,2.07-45.38-24.53-53.51"/><path class="cls-6" d="M363.84,425.36c9.94-18.51-1.36-47.19-30-51.15"/><path class="cls-6" d="M439.64,354.42c2.63-17.3-15.71-38.38-40.95-35.5"/><path class="cls-6" d="M487.35,271C486.07,252,461.86,234.15,436,243.56"/><path class="cls-6" d="M496,174.5c-13.8-18.62-44.38-10.9-56.11,5.86"/><path class="cls-6" d="M465.1,95.24c-17.41-5.44-45.2,6.68-50.43,26.29"/><path class="cls-6" d="M291.26,55.61C275.5,70.21,277,98.49,303.37,108.14"/><path class="cls-6" d="M339.77,104.43C324.07,118,326.56,146,352,154.67"/><path class="cls-6" d="M262.23,132.31c-15.7,13.52-10,39.38,15.45,48.05"/><path class="cls-6" d="M304.77,11c-11.63,10-7.26,28.44,6.56,37"/><path class="cls-6" d="M213.45,32.67c-9.1,17.84-.57,39.79,17.16,43.33"/><path class="cls-6" d="M141,83.18c-10.32,25.45,14.15,40,33.32,38.19"/><path class="cls-6" d="M90.77,164.54c0,25.6,29.7,28.22,43.73,21.36"/><path class="cls-6" d="M77.85,267.68C93,283.65,120,272.18,129,256"/><path class="cls-6" d="M18.9,410c7.77,36.62,47.92,38.67,59,15.59"/><path class="cls-6" d="M51.67,327.91c-7.53,36.57,28.6,54.33,51.75,34.84"/><path class="cls-6" d="M223,86.5c-13.84,12.87-8.4,43.42,21.75,52.89"/><path class="cls-6" d="M154,150.5c-5.82,20.68,16.25,42.15,43.82,36.58"/><path class="cls-6" d="M132.71,252.64c9.33,24.74,49.33,21.39,59-4.76"/><path class="cls-6" d="M197.82,345c31.08-3.83,30.34-34.55,28.84-49.43"/><path class="cls-6" d="M201.12,406c30.59-4.32,30.18-28,29.19-42.63"/><path class="cls-6" d="M299.33,370.77c24.37-14.82,18.92-43,5.44-59"/></svg>