<svg id="Capa_1" enable-background="new 0 0 512 512" height="512" viewBox="0 0 512 512" width="512" xmlns="http://www.w3.org/2000/svg"><g><g><path d="m347.903 321.116-157.019-157.019c-7.397-7.397-7.397-19.39 0-26.787 7.397-7.397 19.39-7.397 26.787 0l157.019 157.018c7.397 7.397 7.397 19.39 0 26.787-7.397 7.398-19.39 7.398-26.787.001z" fill="#c29e79"/><path d="m361.962 308.388c-7.397 7.397-19.39 7.397-26.787 0l12.728 12.728c7.397 7.397 19.39 7.397 26.787 0 7.397-7.397 7.397-19.39 0-26.787l-12.728-12.728c7.397 7.397 7.397 19.39 0 26.787z" fill="#b39171"/><path d="m294.328 374.69-157.018-157.018c-7.397-7.397-7.397-19.39 0-26.787 7.397-7.397 19.39-7.397 26.787 0l157.018 157.018c7.397 7.397 7.397 19.39 0 26.787-7.396 7.397-19.39 7.397-26.787 0z" fill="#c29e79"/><path d="m308.388 361.962c-7.397 7.397-19.39 7.397-26.787 0l12.728 12.728c7.397 7.397 19.39 7.397 26.787 0s7.397-19.39 0-26.787l-12.728-12.728c7.397 7.397 7.397 19.39 0 26.787z" fill="#b39171"/><path d="m321.116 347.903-157.019-157.019c-7.397-7.397-7.397-19.39 0-26.787 7.397-7.397 19.39-7.397 26.787 0l157.018 157.018c7.397 7.397 7.397 19.39 0 26.787-7.396 7.398-19.389 7.398-26.786.001z" fill="#9d7d52"/><path d="m335.175 335.175c-7.397 7.397-19.39 7.397-26.787 0l12.728 12.728c7.397 7.397 19.39 7.397 26.787 0s7.397-19.39 0-26.787l-12.728-12.728c7.397 7.397 7.397 19.39 0 26.787z" fill="#8a6d49"/><path d="m227.061 146.699 27.849 27.848c9.136-15.508 15.658-29.474 21.749-42.526 10.805-23.15 19.338-41.435 39.205-61.302 22.594-22.594 48.151-25.8 65.613-24.511 21.934 1.619 43.758 11.315 58.379 25.936s24.317 36.446 25.936 58.379c1.289 17.462-1.917 43.018-24.511 65.613-19.867 19.867-38.152 28.4-61.302 39.205-13.052 6.091-27.017 12.613-42.526 21.749l27.849 27.849c10.701-5.842 20.788-10.552 30.733-15.194 24.425-11.4 47.496-22.167 72.092-46.763 25.558-25.558 38.176-59.387 35.528-95.253-2.303-31.205-15.773-61.251-36.953-82.431-21.181-21.18-51.226-34.65-82.431-36.953-35.866-2.647-69.695 9.97-95.253 35.528-24.596 24.596-35.363 47.667-46.763 72.092-4.642 9.946-9.353 20.033-15.194 30.734z" fill="#c29e79"/><g fill="#b39171"><path d="m315.863 70.72c22.594-22.594 48.151-25.8 65.613-24.511 18.78 1.386 37.464 8.707 51.631 19.957-1.889-2.379-3.877-4.646-5.979-6.749-14.621-14.621-36.446-24.317-58.38-25.936-17.462-1.289-43.018 1.917-65.612 24.511-19.867 19.867-28.401 38.152-39.205 61.302-6.091 13.052-12.613 27.017-21.749 42.526l12.728 12.728c9.136-15.508 15.658-29.474 21.749-42.526 10.803-23.15 19.337-41.435 39.204-61.302z"/><path d="m490.926 115.002c2.647 35.866-9.97 69.695-35.528 95.253-24.596 24.596-47.667 35.363-72.092 46.763-9.945 4.641-20.032 9.352-30.733 15.194l12.728 12.728c10.701-5.842 20.788-10.552 30.733-15.194 24.425-11.399 47.496-22.167 72.092-46.763 25.558-25.558 38.176-59.386 35.528-95.253-2.303-31.205-15.773-61.251-36.953-82.431-2.117-2.117-4.327-4.154-6.614-6.114 17.644 20.589 28.766 47.732 30.839 75.817z"/></g><path d="m146.699 227.061 27.848 27.849c-15.508 9.136-29.474 15.658-42.526 21.749-23.15 10.805-41.435 19.338-61.302 39.205-22.594 22.594-25.8 48.151-24.511 65.613 1.619 21.934 11.315 43.758 25.936 58.379s36.445 24.317 58.379 25.936c17.462 1.289 43.018-1.917 65.613-24.511 19.867-19.867 28.4-38.152 39.205-61.302 6.091-13.052 12.613-27.017 21.749-42.526l27.849 27.849c-5.842 10.701-10.552 20.788-15.194 30.733-11.4 24.425-22.167 47.496-46.763 72.092-25.558 25.558-59.386 38.176-95.253 35.528-31.205-2.303-61.251-15.773-82.431-36.953s-34.65-51.226-36.953-82.431c-2.648-35.866 9.97-69.695 35.528-95.253 24.596-24.596 47.667-35.363 72.092-46.763 9.946-4.642 20.033-9.353 30.734-15.194z" fill="#c29e79"/><g fill="#b39171"><path d="m210.255 455.398c-25.558 25.558-59.386 38.176-95.253 35.528-28.086-2.073-55.228-13.195-75.817-30.839 1.96 2.287 3.996 4.497 6.114 6.614 21.18 21.18 51.226 34.65 82.431 36.953 35.866 2.648 69.695-9.97 95.253-35.528 24.596-24.596 35.363-47.667 46.763-72.092 4.641-9.945 9.352-20.032 15.194-30.733l-12.728-12.728c-5.841 10.701-10.552 20.788-15.194 30.733-11.4 24.425-22.167 47.496-46.763 72.092z"/><path d="m57.992 303.135c-22.594 22.594-25.8 48.151-24.511 65.613 1.619 21.934 11.315 43.758 25.936 58.379 2.103 2.102 4.369 4.09 6.749 5.979-11.25-14.167-18.57-32.851-19.957-51.631-1.288-17.462 1.917-43.018 24.511-65.613 19.867-19.867 38.152-28.401 61.302-39.205 13.052-6.091 27.017-12.613 42.526-21.749l-12.728-12.728c-15.508 9.136-29.474 15.658-42.525 21.749-23.151 10.806-41.436 19.339-61.303 39.206z"/></g><path d="m311.579 231.216 25.873 25.874c15.508-9.136 29.474-15.657 42.526-21.748 23.15-10.805 41.435-19.338 61.302-39.205 22.594-22.594 25.8-48.151 24.511-65.613-1.619-21.934-11.315-43.758-25.936-58.379s-36.445-24.317-58.379-25.936c-17.462-1.289-43.018 1.917-65.613 24.511-19.867 19.867-28.401 38.152-39.205 61.302-6.091 13.052-12.613 27.017-21.749 42.526l25.874 25.874c.665-.916 16.602-23.087 44.279-78.442 9.855-19.708 25.396-32.203 43.762-35.184 15.977-2.593 32.059 2.402 43.019 13.361s15.955 27.042 13.361 43.019c-2.98 18.365-15.475 33.907-35.184 43.762-55.354 27.677-77.524 43.614-78.441 44.278z" fill="#9d7d52"/><g fill="#8a6d49"><path d="m368.824 86.796c12.848-2.086 25.758.744 36.024 7.629-1.677-2.5-3.586-4.849-5.732-6.995-10.96-10.96-27.042-15.955-43.019-13.361-18.366 2.98-33.907 15.475-43.762 35.184-27.677 55.355-43.615 77.526-44.279 78.442l12.728 12.728c.664-.916 16.602-23.087 44.279-78.442 9.854-19.71 25.396-32.205 43.761-35.185z"/><path d="m453.063 117.797c1.289 17.462-1.917 43.018-24.511 65.613-19.867 19.867-38.152 28.401-61.302 39.205-13.051 6.091-27.017 12.613-42.525 21.748l12.728 12.728c15.508-9.136 29.474-15.657 42.526-21.748 23.15-10.805 41.435-19.338 61.302-39.205 22.594-22.594 25.8-48.151 24.511-65.613-1.619-21.934-11.315-43.758-25.936-58.379-2.102-2.103-4.369-4.09-6.749-5.979 11.25 14.165 18.57 32.85 19.956 51.63z"/></g><path d="m231.216 311.579 25.874 25.873c-9.136 15.508-15.657 29.474-21.748 42.526-10.805 23.15-19.338 41.435-39.205 61.302-22.594 22.594-48.151 25.8-65.613 24.511-21.934-1.619-43.758-11.315-58.379-25.936s-24.317-36.446-25.936-58.379c-1.289-17.462 1.917-43.018 24.511-65.613 19.867-19.867 38.152-28.401 61.302-39.205 13.052-6.091 27.017-12.613 42.526-21.749l25.874 25.874c-.916.665-23.087 16.602-78.442 44.279-19.708 9.855-32.203 25.396-35.184 43.762-2.593 15.977 2.402 32.059 13.361 43.019 10.96 10.96 27.042 15.955 43.019 13.361 18.365-2.98 33.907-15.475 43.762-35.184 27.677-55.354 43.614-77.524 44.278-78.441z" fill="#9d7d52"/><g fill="#8a6d49"><path d="m222.614 367.25c-10.805 23.15-19.338 41.435-39.205 61.302-22.594 22.594-48.151 25.8-65.613 24.511-18.78-1.386-37.464-8.707-51.631-19.957 1.889 2.379 3.877 4.646 5.979 6.749 14.621 14.621 36.445 24.317 58.379 25.936 17.462 1.289 43.018-1.917 65.613-24.511 19.867-19.867 28.4-38.152 39.205-61.302 6.091-13.052 12.613-27.017 21.748-42.526l-12.728-12.728c-9.134 15.509-15.656 29.475-21.747 42.526z"/><path d="m74.068 356.096c-2.593 15.977 2.402 32.059 13.362 43.019 2.146 2.147 4.495 4.056 6.995 5.732-6.884-10.266-9.714-23.176-7.629-36.024 2.98-18.366 15.475-33.907 35.184-43.762 55.355-27.677 77.526-43.615 78.442-44.279l-12.728-12.728c-.916.665-23.087 16.602-78.442 44.279-19.709 9.857-32.204 25.398-35.184 43.763z"/></g></g><path d="m511.632 126.927c-2.438-33.037-16.729-64.876-39.205-87.353-22.479-22.478-54.317-36.767-87.354-39.206-38.147-2.816-74.127 10.6-101.306 37.778-25.579 25.58-36.639 49.278-48.349 74.368-3.247 6.958-6.581 14.09-10.317 21.441l-2.191-2.191c-10.33-10.33-27.137-10.33-37.466 0-5.258 5.258-7.834 12.195-7.739 19.101-6.906-.095-13.843 2.48-19.101 7.738s-7.833 12.195-7.738 19.101c-6.906-.095-13.843 2.48-19.101 7.738-5.004 5.004-7.76 11.657-7.76 18.733 0 7.077 2.756 13.73 7.76 18.733l2.191 2.191c-7.353 3.736-14.484 7.069-21.441 10.316-25.089 11.709-48.788 22.77-74.369 48.35-27.178 27.18-40.594 63.158-37.778 101.308 2.439 33.037 16.729 64.875 39.206 87.353 22.477 22.477 54.316 36.767 87.353 39.206 3.332.246 6.645.368 9.94.368 34.426 0 66.562-13.342 91.366-38.147 25.58-25.58 36.64-49.278 48.349-74.368 3.249-6.959 6.583-14.092 10.317-21.44l2.19 2.19c5.005 5.004 11.658 7.76 18.734 7.76 7.077 0 13.73-2.756 18.733-7.759 5.005-5.004 7.76-11.657 7.76-18.734 0-.119-.007-.236-.009-.355.118.002.236.009.355.009 7.077 0 13.73-2.756 18.733-7.759 5.005-5.004 7.76-11.657 7.76-18.734 0-.123-.007-.245-.009-.367.118.002.237.008.355.008 6.785 0 13.569-2.583 18.735-7.747 10.329-10.33 10.329-27.137 0-37.466l-2.192-2.192c7.354-3.737 14.484-7.07 21.442-10.317 25.09-11.71 48.787-22.77 74.368-48.349 27.177-27.18 40.594-63.157 37.778-101.306zm-248.67 266.203c-11.133 23.856-21.65 46.389-45.357 70.096-24.039 24.038-55.847 35.902-89.572 33.417-29.496-2.178-57.865-14.878-77.832-34.845s-32.667-48.336-34.845-77.832c-2.489-33.722 9.379-65.533 33.417-89.572 23.709-23.708 46.241-34.224 70.098-45.358 8.432-3.935 17.112-7.992 26.24-12.781l16.997 16.997c-11.907 6.555-22.854 11.664-33.51 16.636-23.864 11.138-42.713 19.936-63.554 40.776-24.649 24.65-28.147 52.546-26.74 71.608 1.751 23.721 12.281 47.367 28.167 63.254s39.533 26.416 63.254 28.167c2.281.168 4.689.267 7.203.267 18.49 0 42.705-5.307 64.404-27.006 20.84-20.84 29.638-39.69 40.778-63.557 4.971-10.652 10.08-21.599 16.634-33.506l16.997 16.997c-4.784 9.123-8.842 17.806-12.779 26.242zm-168.423 24.331c10.487 10.487 24.982 16.263 40.08 16.262 3.163 0 6.355-.254 9.54-.771 4.096-.665 6.879-4.525 6.214-8.622-.665-4.096-4.525-6.876-8.622-6.214-13.633 2.213-27.308-2.006-36.585-11.283-9.278-9.278-13.496-22.955-11.283-36.585 2.588-15.953 13.668-29.565 31.195-38.33 41.477-20.738 64.682-35.067 74.313-41.382l22.072 22.072c-6.314 9.63-20.641 32.832-41.382 74.313-4.026 8.051-9.062 14.764-14.97 19.951-3.118 2.738-3.427 7.486-.688 10.605 2.747 3.127 7.499 3.418 10.605.688 7.374-6.475 13.597-14.726 18.496-24.523 18.847-37.694 32.119-59.756 38.798-70.175l15.382 15.382c-7.883 13.924-13.869 26.742-19.214 38.195-10.512 22.524-18.815 40.314-37.784 59.283-20.626 20.625-43.946 23.555-59.874 22.379-20.232-1.493-40.319-10.393-53.732-23.806s-22.312-33.5-23.806-53.733c-1.175-15.93 1.753-39.248 22.379-59.875 18.969-18.969 36.759-27.272 59.286-37.785 11.45-5.343 24.267-11.329 38.192-19.212l15.382 15.382c-10.42 6.68-32.485 19.953-70.176 38.798-21.965 10.983-35.925 28.515-39.309 49.364-2.985 18.388 2.806 36.938 15.491 49.622zm248.229-74.692c-4.265 4.448-11.945 4.447-16.211 0l-25.593-25.593c-2.935-2.934-7.693-2.935-10.628 0-2.934 2.934-2.934 7.693 0 10.627l25.594 25.594c4.447 4.267 4.447 11.945-.001 16.212-4.266 4.447-11.945 4.447-16.211 0l-157.326-157.326c-4.447-4.267-4.447-11.945 0-16.212 4.47-4.47 11.743-4.47 16.212 0l110.477 110.477c2.935 2.934 7.693 2.934 10.628 0 2.934-2.934 2.934-7.693 0-10.627l-110.478-110.478c-4.47-4.47-4.47-11.743 0-16.212 4.47-4.47 11.743-4.47 16.212 0l157.321 157.32c4.451 4.267 4.454 11.949.004 16.218zm26.841-26.84c-4.471 4.47-11.74 4.469-16.211.003-.001-.001-.002-.002-.003-.003l-157.324-157.325c-4.47-4.47-4.47-11.743 0-16.212 4.47-4.47 11.743-4.47 16.212 0l157.325 157.325c4.47 4.47 4.47 11.742.001 16.212zm-79.073-116.539c6.318-9.637 20.658-32.861 41.382-74.312 8.764-17.527 22.377-28.606 38.329-31.195 13.632-2.214 27.307 2.006 36.585 11.283 9.279 9.278 13.497 22.955 11.284 36.586-2.588 15.952-13.666 29.564-31.195 38.329-41.5 20.75-64.689 35.069-74.314 41.381zm172.69 18.215c-23.707 23.707-46.24 34.224-70.097 45.358-8.431 3.934-17.11 7.991-26.24 12.78l-16.997-16.997c11.903-6.553 22.852-11.663 33.508-16.635 23.865-11.138 42.715-19.936 63.556-40.777 24.65-24.651 28.146-52.547 26.739-71.608-1.75-23.722-12.281-47.368-28.166-63.254-15.886-15.886-39.533-26.416-63.255-28.167-15.941-1.176-31.053 1.479-44.913 7.893-3.767 1.743-5.407 6.209-3.664 9.976 1.742 3.766 6.204 5.408 9.977 3.664 11.516-5.329 24.131-7.53 37.495-6.544 20.233 1.494 40.32 10.393 53.733 23.806s22.312 33.5 23.806 53.733c1.176 15.929-1.753 39.247-22.379 59.874-18.969 18.969-36.76 27.272-59.286 37.786-11.451 5.345-24.271 11.332-38.192 19.212l-15.383-15.382c10.412-6.676 32.464-19.941 70.177-38.798 21.966-10.984 35.926-28.515 39.308-49.364 2.984-18.386-2.806-36.936-15.491-49.621-12.685-12.684-31.229-18.475-49.62-15.492-20.851 3.384-38.382 17.344-49.365 39.31-18.832 37.665-32.115 59.745-38.8 70.174l-15.381-15.381c7.878-13.915 13.867-26.738 19.215-38.198 10.512-22.522 18.815-40.312 37.784-59.279 2.935-2.935 2.935-7.693 0-10.627-2.934-2.934-7.692-2.935-10.628 0-20.839 20.839-29.637 39.688-40.777 63.557-4.974 10.656-10.086 21.606-16.636 33.506l-16.997-16.997c4.788-9.126 8.845-17.808 12.781-26.241 11.133-23.856 21.65-46.389 45.357-70.096 24.038-24.038 55.844-35.903 89.572-33.417 29.496 2.178 57.865 14.878 77.831 34.845 19.968 19.967 32.667 48.335 34.845 77.832 2.49 33.719-9.378 65.53-33.417 89.569z"/></g></svg>