<svg xmlns="http://www.w3.org/2000/svg" xmlns:xlink="http://www.w3.org/1999/xlink" viewBox="0 0 512 512" xmlns:v="https://vecta.io/nano"><defs><radialGradient id="A" cx="293.49" cy="228.43" r="244.11" gradientUnits="userSpaceOnUse"><stop offset=".22" stop-color="#bccacf"/><stop offset=".35" stop-color="#b6c4c9"/><stop offset=".52" stop-color="#a7b2b8"/><stop offset=".72" stop-color="#8d959c"/><stop offset=".94" stop-color="#696e75"/><stop offset=".96" stop-color="#666a71"/></radialGradient><radialGradient id="B" cx="27" cy="446" r="305.64" gradientUnits="userSpaceOnUse"><stop offset=".22" stop-color="#bccacf"/><stop offset=".35" stop-color="#b6c4c9"/><stop offset=".54" stop-color="#a7b2b8"/><stop offset=".75" stop-color="#8d959c"/><stop offset=".98" stop-color="#696e75"/><stop offset="1" stop-color="#666a71"/></radialGradient><radialGradient id="C" cx="256" cy="256" fx="278.313" fy="240.798" r="27" xlink:href="#A"/></defs><g fill="url(#A)"><circle cx="256" cy="256" r="234.5" stroke="#000" stroke-width="40"/><circle cx="256" cy="256" r="234.5"/></g><path d="M256,21.5c-129.51,0-234.5,105-234.5,234.5s105,234.5,234.5,234.5,234.5-105,234.5-234.5S385.51,21.5,256,21.5Zm0,456.17C133.58,477.67,34.33,378.42,34.33,256S133.58,34.33,256,34.33,477.67,133.58,477.67,256,378.42,477.67,256,477.67Z" fill="url(#B)"/><circle cx="256" cy="256" r="184.33" stroke-width="40" fill="none" stroke="#1d1d1b"/><circle cx="256" cy="256" r="184.33" fill="#98644b"/><path d="M226 74.1a183 183 0 0 0-56 18.82v326.16a183 183 0 0 0 56 18.82zm114.68 18.13A183.41 183.41 0 0 0 286 74.1v363.8a183.41 183.41 0 0 0 54.72-18.13zm59.92 49.45v228.64a184.34 184.34 0 0 0 0-228.64zm-290.5 1.67a184.32 184.32 0 0 0 0 225.3z" fill="#7e442b"/><circle cx="256" cy="256" r="41.67" stroke="#000" fill="none" stroke-width="35"/><circle cx="256" cy="256" r="41.67" fill="url(#C)"/></svg>