<svg xmlns="http://www.w3.org/2000/svg" xmlns:xlink="http://www.w3.org/1999/xlink" viewBox="0 0 512 512"><defs><style>.cls-1,.cls-4,.cls-7{stroke:#1d1d1b;stroke-miterlimit:10;}.cls-1,.cls-4{stroke-width:40px;}.cls-1,.cls-2{fill:url(#Безымянный_градиент_18);}.cls-3{fill:url(#Безымянный_градиент_66);}.cls-4,.cls-7{fill:none;}.cls-5{fill:#98644b;}.cls-6{fill:#7e442b;}.cls-7{stroke-width:35px;}.cls-8{fill:url(#Безымянный_градиент_18-2);}</style><radialGradient id="Безымянный_градиент_18" cx="293.49" cy="228.43" r="244.11" gradientUnits="userSpaceOnUse"><stop offset="0.22" stop-color="#bccacf"/><stop offset="0.35" stop-color="#b6c4c9"/><stop offset="0.52" stop-color="#a7b2b8"/><stop offset="0.72" stop-color="#8d959c"/><stop offset="0.94" stop-color="#696e75"/><stop offset="0.96" stop-color="#666a71"/></radialGradient><radialGradient id="Безымянный_градиент_66" cx="27" cy="446" r="305.64" gradientUnits="userSpaceOnUse"><stop offset="0.22" stop-color="#bccacf"/><stop offset="0.35" stop-color="#b6c4c9"/><stop offset="0.54" stop-color="#a7b2b8"/><stop offset="0.75" stop-color="#8d959c"/><stop offset="0.98" stop-color="#696e75"/><stop offset="1" stop-color="#666a71"/></radialGradient><radialGradient id="Безымянный_градиент_18-2" cx="256" cy="256" fx="278.3131982126762" fy="240.7984292434817" r="27" xlink:href="#Безымянный_градиент_18"/></defs><title>shield</title><g id="Слой_2" data-name="Слой 2"><circle class="cls-1" cx="256" cy="256" r="234.5"/><circle class="cls-2" cx="256" cy="256" r="234.5"/><path class="cls-3" d="M256,21.5c-129.51,0-234.5,105-234.5,234.5s105,234.5,234.5,234.5,234.5-105,234.5-234.5S385.51,21.5,256,21.5Zm0,456.17C133.58,477.67,34.33,378.42,34.33,256S133.58,34.33,256,34.33,477.67,133.58,477.67,256,378.42,477.67,256,477.67Z"/><circle class="cls-4" cx="256" cy="256" r="184.33"/><circle class="cls-5" cx="256" cy="256" r="184.33"/><path class="cls-6" d="M226,74.1a183,183,0,0,0-56,18.82V419.08a183,183,0,0,0,56,18.82Z"/><path class="cls-6" d="M340.68,92.23A183.41,183.41,0,0,0,286,74.1V437.9a183.41,183.41,0,0,0,54.72-18.13Z"/><path class="cls-6" d="M400.6,141.68V370.32a184.34,184.34,0,0,0,0-228.64Z"/><path class="cls-6" d="M110.1,143.35a184.32,184.32,0,0,0,0,225.3Z"/><circle class="cls-7" cx="256" cy="256" r="41.67"/><circle class="cls-8" cx="256" cy="256" r="41.67"/></g></svg>