<svg id="Layer_1" data-name="Layer 1" xmlns="http://www.w3.org/2000/svg" viewBox="0 0 512 512"><defs><style>.cls-1,.cls-4{fill:none;stroke:#000;stroke-miterlimit:10;stroke-width:40px;}.cls-2,.cls-8{fill:#87492d;}.cls-3,.cls-9{fill:#99654c;}.cls-4,.cls-5,.cls-6,.cls-7,.cls-8,.cls-9{fill-rule:evenodd;}.cls-5{fill:#b7bfcb;}.cls-6{fill:#9499a4;}.cls-7{fill:#7c8088;}.cls-10{fill:#99382e;}</style></defs><title>sword</title><rect class="cls-1" x="34.31" y="359.12" width="176.14" height="64.37" transform="translate(-240.85 201.14) rotate(-45)"/><rect class="cls-2" x="40.46" y="391.78" width="176.14" height="32.18" transform="translate(-250.76 210.35) rotate(-45)"/><rect class="cls-3" x="17.66" y="368.98" width="176.14" height="32.18" transform="translate(-241.32 187.55) rotate(-45)"/><path class="cls-4" d="M475,92.71,214.19,353.49l-54.13-54.13L420.85,38.58a32.35,32.35,0,0,1,14.41-8.36L481,21a9.12,9.12,0,0,1,9.52,3,6.7,6.7,0,0,1,.82.78,8.6,8.6,0,0,1,2.35,5.49,16.19,16.19,0,0,1-.36,3l-9.86,45.11c-.2.65-.4,1.29-.63,1.93-.09.26-.19.51-.29.75a33,33,0,0,1-7.17,11.22Z"/><path class="cls-5" d="M490.5,24,187.59,326.9l-27.53-27.53L420.85,38.58a32.4,32.4,0,0,1,14.41-8.36L481,21A9.12,9.12,0,0,1,490.5,24Z"/><path class="cls-6" d="M475,92.71,214.19,353.5l-26.6-26.6L490.5,24a7.6,7.6,0,0,1,.83.78,8.67,8.67,0,0,1,2.34,5.49s0,0,0,0a9,9,0,0,1-.36,3l-9.87,45.11c-.18.65-.39,1.3-.63,1.94a6.61,6.61,0,0,1-.28.74,33.2,33.2,0,0,1-7.17,11.22C475.24,92.45,475.11,92.58,475,92.71Z"/><path class="cls-7" d="M432.53,97.89,198.29,332.13l-15.92-15.92L416.61,82c5-5,12.67-5.6,17.37-1.44C438.14,85.22,437.55,92.87,432.53,97.89Z"/><rect class="cls-1" x="32.72" y="321.23" width="275.22" height="44.04" rx="14.17" transform="translate(292.6 -19.91) rotate(45)"/><path class="cls-8" d="M275.42,432.77l-15.57,15.57a11,11,0,0,1-15.57,0l-89.52-89.52,31.14-31.14,89.52,89.52A11,11,0,0,1,275.42,432.77Z"/><path class="cls-9" d="M80.81,238.16,65.24,253.73c-4.3,4.3-2.54,13,3.94,19.5L204,408.05l31.14-31.13L100.32,242.1C93.84,235.62,85.11,233.86,80.81,238.16Z"/><path class="cls-1" d="M20.78,439.25H85.21a0,0,0,0,1,0,0v31.22a11.4,11.4,0,0,1-11.4,11.4H32.18a11.4,11.4,0,0,1-11.4-11.4V439.25A0,0,0,0,1,20.78,439.25Z" transform="translate(341.19 97.42) rotate(45)"/><path class="cls-10" d="M19.54,440.62H84a0,0,0,0,1,0,0v31.22a11.4,11.4,0,0,1-11.4,11.4H30.94a11.4,11.4,0,0,1-11.4-11.4V440.62a0,0,0,0,1,0,0Z" transform="translate(341.79 98.7) rotate(45)"/></svg>