<svg xmlns="http://www.w3.org/2000/svg" viewBox="0 0 512 512" xmlns:v="https://vecta.io/nano"><style><![CDATA[.K{stroke:#000}.L{stroke-miterlimit:10}.M{stroke-width:40}.N{fill-rule:evenodd}]]></style><path d="M37.347 430.815l124.55-124.55 45.516 45.516-124.55 124.55z" fill="none" class="K L M"/><path d="M54.88 458.771l124.55-124.55 22.755 22.755-124.55 124.55z" fill="#87492d"/><path d="M32.076 435.971l124.55-124.55 22.755 22.755-124.55 124.55z" fill="#99654c"/><path d="M475 92.71L214.19 353.49l-54.13-54.13L420.85 38.58a32.35 32.35 0 0 1 14.41-8.36L481 21a9.12 9.12 0 0 1 9.52 3 6.7 6.7 0 0 1 .82.78 8.6 8.6 0 0 1 2.35 5.49 16.19 16.19 0 0 1-.36 3l-9.86 45.11-.63 1.93-.29.75a33 33 0 0 1-7.17 11.22z" fill="none" class="K L M"/><g class="N"><path d="M490.5 24L187.59 326.9l-27.53-27.53L420.85 38.58a32.4 32.4 0 0 1 14.41-8.36L481 21a9.12 9.12 0 0 1 9.5 3z" fill="#b7bfcb"/><path d="M475 92.71L214.19 353.5l-26.6-26.6L490.5 24a7.6 7.6 0 0 1 .83.78 8.67 8.67 0 0 1 2.34 5.49 9 9 0 0 1-.36 3l-9.87 45.11-.63 1.94a6.61 6.61 0 0 1-.28.74 33.2 33.2 0 0 1-7.17 11.22c-.12.17-.25.3-.36.43z" fill="#9499a4"/><path d="M432.53 97.89L198.29 332.13l-15.92-15.92L416.61 82c5-5 12.67-5.6 17.37-1.44 4.16 4.66 3.57 12.31-1.45 17.33z" fill="#7c8088"/></g><rect x="32.72" y="321.23" width="275.22" height="44.04" rx="14.17" transform="matrix(.707107 .707107 -.707107 .707107 292.6 -19.91)" fill="none" class="K L M"/><g class="N"><path d="M275.42 432.77l-15.57 15.57a11 11 0 0 1-15.57 0l-89.52-89.52 31.14-31.14 89.52 89.52a11 11 0 0 1 0 15.57z" fill="#87492d"/><path d="M80.81 238.16l-15.57 15.57c-4.3 4.3-2.54 13 3.94 19.5L204 408.05l31.14-31.13L100.32 242.1c-6.48-6.48-15.21-8.24-19.51-3.94z" fill="#99654c"/></g><path d="M45.287 422.71l45.559 45.559h0L68.77 490.345c-4.452 4.452-11.67 4.452-16.122 0l-29.437-29.437c-4.452-4.452-4.452-11.67 0-16.122l22.076-22.076h0z" fill="none" class="K L M"/><path d="M44.041 424.082l45.58 45.58h0l-22.076 22.076c-4.452 4.452-11.67 4.452-16.122 0L21.966 462.28c-4.452-4.452-4.452-11.67 0-16.122l22.076-22.076h0z" fill="#99382e"/></svg>