<svg xmlns="http://www.w3.org/2000/svg" viewBox="0 0 512 512"><defs><style>.cls-1{fill:#552611;}.cls-1,.cls-10,.cls-2,.cls-4,.cls-5,.cls-6,.cls-9{stroke:#1d1d1b;}.cls-1,.cls-2,.cls-5,.cls-9{stroke-linecap:round;stroke-linejoin:round;}.cls-1,.cls-10,.cls-2,.cls-9{stroke-width:40px;}.cls-10,.cls-2,.cls-5,.cls-6{fill:none;}.cls-3{fill:#6b361d;}.cls-4{fill:#c88d66;}.cls-10,.cls-4,.cls-6{stroke-miterlimit:10;}.cls-4,.cls-6{stroke-width:20px;}.cls-5{stroke-width:16px;}.cls-7{fill:#8d5a3e;}.cls-8{fill:#784434;}.cls-9{fill:#936037;}.cls-11{fill:#7b412b;}.cls-12{fill:#a66d48;}</style></defs><title>traveler_pack</title><g id="Слой_2" data-name="Слой 2"><circle class="cls-1" cx="260.99" cy="97.8" r="76.95"/><rect class="cls-2" x="371.62" y="139.71" width="110.31" height="130.72" rx="22.17"/><rect class="cls-2" x="40.06" y="139.71" width="110.31" height="130.72" rx="25.17"/><rect class="cls-3" x="40.06" y="139.71" width="110.31" height="130.72" rx="25.17"/><rect class="cls-3" x="371.62" y="139.71" width="110.31" height="130.72" rx="22.17"/><circle class="cls-3" cx="260.99" cy="97.8" r="76.95"/><rect class="cls-4" x="14.65" y="187.36" width="73.41" height="268.86" rx="29.25" transform="translate(102.71 643.58) rotate(180)"/><path class="cls-5" d="M20.29,262.92c3.31,2,20.94,5.14,31.07,3.76,23.62-3.21,27.34-15.53,32-23.19,6.27-10.38,6-31.91-6.54-46.91-11.93-14.29-57.63-11.23-61.28,8.49-3,16.1-4.2,32.12,21.34,36C57.52,244.21,60.29,222,50.67,215"/><path class="cls-2" d="M21.32,401.37V463.9a25.85,25.85,0,0,0,25.77,25.77h68.63A25.85,25.85,0,0,0,141.5,463.9V401.37Z"/><path class="cls-3" d="M21.32,401.37V463.9a25.85,25.85,0,0,0,25.77,25.77h68.63A25.85,25.85,0,0,0,141.5,463.9V401.37Z"/><line class="cls-6" x1="117.08" y1="183.71" x2="485.31" y2="183.71"/><rect class="cls-2" x="92.9" y="68.27" width="336.2" height="421.4" rx="33.88"/><rect class="cls-7" x="92.62" y="69.63" width="336.75" height="420.04" rx="33.88"/><rect class="cls-2" x="92.62" y="69.63" width="336.75" height="163.24" rx="33.88"/><rect class="cls-8" x="92.62" y="69.63" width="336.75" height="163.24" rx="33.88"/><polygon class="cls-2" points="319.48 263.17 342.09 278.97 364.7 263.17 364.7 206.37 364.7 149.57 342.09 149.57 319.48 149.57 319.48 206.37 319.48 263.17"/><polygon class="cls-2" points="157.29 263.17 179.9 278.97 202.51 263.17 202.51 206.37 202.51 149.57 179.9 149.57 157.29 149.57 157.29 206.37 157.29 263.17"/><polygon class="cls-3" points="157.29 263.17 179.9 278.97 202.51 263.17 202.51 206.37 202.51 149.57 179.9 149.57 157.29 149.57 157.29 206.37 157.29 263.17"/><polygon class="cls-3" points="319.48 263.17 342.09 278.97 364.7 263.17 364.7 206.37 364.7 149.57 342.09 149.57 319.48 149.57 319.48 206.37 319.48 263.17"/><path class="cls-9" d="M134.5,344.52V415.2a39,39,0,0,0,38.92,38.92H348.57a39,39,0,0,0,38.92-38.92V344.52Z"/><path class="cls-8" d="M134.5,344.52V415.2a39,39,0,0,0,38.92,38.92H348.57a39,39,0,0,0,38.92-38.92V344.52Z"/><path class="cls-10" d="M396.81,239.18h10.78a54.88,54.88,0,0,1,54.72,54.72V407.24A54.88,54.88,0,0,1,407.59,462H396.81a54.88,54.88,0,0,1-54.72-54.72V293.9A54.88,54.88,0,0,1,396.81,239.18Zm-37.12,161a41.08,41.08,0,0,0,41,41h3.07a41.09,41.09,0,0,0,41-41V301a41.1,41.1,0,0,0-41-41h-3.07a41.09,41.09,0,0,0-41,41Z"/><path class="cls-11" d="M396.81,239.18h10.78a54.88,54.88,0,0,1,54.72,54.72V407.24A54.88,54.88,0,0,1,407.59,462H396.81a54.88,54.88,0,0,1-54.72-54.72V293.9A54.88,54.88,0,0,1,396.81,239.18Zm-37.12,161a41.08,41.08,0,0,0,41,41h3.07a41.09,41.09,0,0,0,41-41V301a41.1,41.1,0,0,0-41-41h-3.07a41.09,41.09,0,0,0-41,41Z"/><path class="cls-10" d="M435.78,219H425a54.87,54.87,0,0,0-54.72,54.71V387.06A54.88,54.88,0,0,0,425,441.78h10.78a54.48,54.48,0,0,0,37.11-14.6v58.13a5.92,5.92,0,0,0,5.91,5.91h5.79a5.92,5.92,0,0,0,5.91-5.91V273.71A54.87,54.87,0,0,0,435.78,219Zm37.11,161a41.08,41.08,0,0,1-41,41h-3.07a41.09,41.09,0,0,1-41-41V280.82a41.09,41.09,0,0,1,41-41h3.07a41.09,41.09,0,0,1,41,41Z"/><path class="cls-12" d="M435.78,219H425a54.87,54.87,0,0,0-54.72,54.71V387.06A54.88,54.88,0,0,0,425,441.78h10.78a54.48,54.48,0,0,0,37.11-14.6v58a6,6,0,0,0,6,6h5.53a6,6,0,0,0,6-6V273.71A54.87,54.87,0,0,0,435.78,219Zm37.11,161a41.08,41.08,0,0,1-41,41h-3.07a41.09,41.09,0,0,1-41-41V280.82a41.09,41.09,0,0,1,41-41h3.07a41.09,41.09,0,0,1,41,41Z"/></g></svg>