<svg xmlns="http://www.w3.org/2000/svg" xmlns:xlink="http://www.w3.org/1999/xlink" viewBox="0 0 512 512" xmlns:v="https://vecta.io/nano"><style><![CDATA[.M{stroke:#1d1d1b}.N{stroke-width:40}.O{fill:none}.P{stroke-linejoin:round}.Q{stroke-miterlimit:10}.R{fill:#6b361d}]]></style><g class="M N P"><circle cx="260.99" cy="97.8" r="76.95" fill="#552611"/><g class="O"><rect x="371.62" y="139.71" width="110.31" height="130.72" rx="22.17"/><rect x="40.06" y="139.71" width="110.31" height="130.72" rx="25.17"/></g></g><g class="R"><rect x="40.06" y="139.71" width="110.31" height="130.72" rx="25.17"/><rect x="371.62" y="139.71" width="110.31" height="130.72" rx="22.17"/><circle cx="260.99" cy="97.8" r="76.95"/></g><g class="M"><rect x="14.65" y="187.36" width="73.41" height="268.86" rx="29.25" transform="matrix(-1 0 0 -1 102.71 643.58)" fill="#c88d66" stroke-width="20" class="Q"/><g class="O P"><path d="M20.29,262.92c3.31,2,20.94,5.14,31.07,3.76,23.62-3.21,27.34-15.53,32-23.19,6.27-10.38,6-31.91-6.54-46.91-11.93-14.29-57.63-11.23-61.28,8.49-3,16.1-4.2,32.12,21.34,36C57.52,244.21,60.29,222,50.67,215" stroke-linecap="round" stroke-width="16"/><path d="M21.32,401.37V463.9a25.85,25.85,0,0,0,25.77,25.77h68.63A25.85,25.85,0,0,0,141.5,463.9V401.37Z" class="N"/></g></g><path d="M21.32,401.37V463.9a25.85,25.85,0,0,0,25.77,25.77h68.63A25.85,25.85,0,0,0,141.5,463.9V401.37Z" class="R"/><g class="M O"><path d="M117.08 183.71h368.23" stroke-width="20" class="Q"/><rect x="92.9" y="68.27" width="336.2" height="421.4" rx="33.88" class="N P"/></g><rect x="92.62" y="69.63" width="336.75" height="420.04" rx="33.88" fill="#8d5a3e"/><rect x="92.62" y="69.63" width="336.75" height="163.24" rx="33.88" class="M N O P"/><rect x="92.62" y="69.63" width="336.75" height="163.24" rx="33.88" fill="#784434"/><path d="M319.48 263.17l22.61 15.8 22.61-15.8v-56.8-56.8h-22.61-22.61v56.8 56.8zm-162.19 0l22.61 15.8 22.61-15.8v-56.8-56.8H179.9h-22.61v56.8 56.8z" class="M N O P"/><path d="M157.29 263.17l22.61 15.8 22.61-15.8v-56.8-56.8H179.9h-22.61v56.8 56.8zm162.19 0l22.61 15.8 22.61-15.8v-56.8-56.8h-22.61-22.61v56.8 56.8z" class="R"/><path d="M134.5,344.52V415.2a39,39,0,0,0,38.92,38.92H348.57a39,39,0,0,0,38.92-38.92V344.52Z" fill="#936037" class="M N P"/><path d="M134.5,344.52V415.2a39,39,0,0,0,38.92,38.92H348.57a39,39,0,0,0,38.92-38.92V344.52Z" fill="#784434"/><use xlink:href="#B" class="M N O Q"/><use xlink:href="#B" fill="#7b412b"/><path d="M435.78,219H425a54.87,54.87,0,0,0-54.72,54.71V387.06A54.88,54.88,0,0,0,425,441.78h10.78a54.48,54.48,0,0,0,37.11-14.6v58.13a5.92,5.92,0,0,0,5.91,5.91h5.79a5.92,5.92,0,0,0,5.91-5.91V273.71A54.87,54.87,0,0,0,435.78,219Zm37.11,161a41.08,41.08,0,0,1-41,41h-3.07a41.09,41.09,0,0,1-41-41V280.82a41.09,41.09,0,0,1,41-41h3.07a41.09,41.09,0,0,1,41,41Z" class="M N O Q"/><path d="M435.78,219H425a54.87,54.87,0,0,0-54.72,54.71V387.06A54.88,54.88,0,0,0,425,441.78h10.78a54.48,54.48,0,0,0,37.11-14.6v58a6,6,0,0,0,6,6h5.53a6,6,0,0,0,6-6V273.71A54.87,54.87,0,0,0,435.78,219Zm37.11,161a41.08,41.08,0,0,1-41,41h-3.07a41.09,41.09,0,0,1-41-41V280.82a41.09,41.09,0,0,1,41-41h3.07a41.09,41.09,0,0,1,41,41Z" fill="#a66d48"/><defs ><path id="B" d="M396.81 239.18h10.78a54.88 54.88 0 0 1 54.72 54.72v113.34A54.88 54.88 0 0 1 407.59 462h-10.78a54.88 54.88 0 0 1-54.72-54.72V293.9a54.88 54.88 0 0 1 54.72-54.72zm-37.12 161a41.08 41.08 0 0 0 41 41h3.07a41.09 41.09 0 0 0 41-41V301a41.1 41.1 0 0 0-41-41h-3.07a41.09 41.09 0 0 0-41 41z"/></defs></svg>